<?xml version="1.0" encoding="UTF-8" standalone="no"?>
<!DOCTYPE svg PUBLIC "-//W3C//DTD SVG 1.1//EN"
 "http://www.w3.org/Graphics/SVG/1.1/DTD/svg11.dtd">
<!-- Generated by graphviz version 2.40.1 (20161225.0304)
 -->
<!-- Title: small_enterprise Pages: 1 -->
<svg width="717pt" height="539pt"
 viewBox="0.00 0.00 717.00 539.00" xmlns="http://www.w3.org/2000/svg" xmlns:xlink="http://www.w3.org/1999/xlink">
<g id="graph0" class="graph" transform="scale(1 1) rotate(0) translate(4 535)">
<title>small_enterprise</title>
<polygon fill="#ffffff" stroke="transparent" points="-4,4 -4,-535 713,-535 713,4 -4,4"/>
<text text-anchor="middle" x="354.5" y="-507.8" font-family="Times,serif" font-size="24.00" fill="#000000">CVSS Scores Fixed at Value (2.7)</text>
<text text-anchor="middle" x="354.5" y="-481.8" font-family="Times,serif" font-size="24.00" fill="#000000">Mapped onto MTTF Times</text>
<!-- 1 -->
<g id="node1" class="node">
<title>1</title>
<polygon fill="none" stroke="#0000ff" points="310,-36 110.5,-18 310,0 509.5,-18 310,-36"/>
<text text-anchor="middle" x="310" y="-14.3" font-family="Roboto" font-size="14.00" fill="#000000">1:execCode(workStation,root):0</text>
</g>
<!-- 3 -->
<g id="node2" class="node">
<title>3</title>
<polygon fill="none" stroke="#0000ff" points="310,-123 0,-105 310,-87 620,-105 310,-123"/>
<text text-anchor="middle" x="310" y="-101.3" font-family="Roboto" font-size="14.00" fill="#000000">3:accessFile(workStation,write,&#39;/usr/local/share&#39;):0</text>
</g>
<!-- 3&#45;&gt;1 -->
<g id="edge1" class="edge">
<title>3&#45;&gt;1</title>
<path fill="none" stroke="#000000" d="M310,-86.9735C310,-75.1918 310,-59.5607 310,-46.1581"/>
<polygon fill="#000000" stroke="#000000" points="313.5001,-46.0033 310,-36.0034 306.5001,-46.0034 313.5001,-46.0033"/>
<text text-anchor="middle" x="324.5" y="-57.8" font-family="Roboto" font-size="14.00" fill="#000000">50.0</text>
</g>
<!-- 5 -->
<g id="node3" class="node">
<title>5</title>
<polygon fill="none" stroke="#0000ff" points="310,-210 68.023,-192 310,-174 551.977,-192 310,-210"/>
<text text-anchor="middle" x="310" y="-188.3" font-family="Roboto" font-size="14.00" fill="#000000">5:accessFile(fileServer,write,&#39;/export&#39;):0</text>
</g>
<!-- 5&#45;&gt;3 -->
<g id="edge2" class="edge">
<title>5&#45;&gt;3</title>
<path fill="none" stroke="#000000" d="M310,-173.9735C310,-162.1918 310,-146.5607 310,-133.1581"/>
<polygon fill="#000000" stroke="#000000" points="313.5001,-133.0033 310,-123.0034 306.5001,-133.0034 313.5001,-133.0033"/>
<text text-anchor="middle" x="324.5" y="-144.8" font-family="Roboto" font-size="14.00" fill="#000000">50.0</text>
</g>
<!-- 8 -->
<g id="node4" class="node">
<title>8</title>
<polygon fill="none" stroke="#0000ff" points="525,-297 341,-279 525,-261 709,-279 525,-297"/>
<text text-anchor="middle" x="525" y="-275.3" font-family="Roboto" font-size="14.00" fill="#000000">8:execCode(fileServer,root):0</text>
</g>
<!-- 8&#45;&gt;5 -->
<g id="edge3" class="edge">
<title>8&#45;&gt;5</title>
<path fill="none" stroke="#000000" d="M489.0138,-264.4382C452.9013,-249.8252 397.0837,-227.2385 357.3856,-211.1746"/>
<polygon fill="#000000" stroke="#000000" points="358.4975,-207.8489 347.9148,-207.3423 355.8718,-214.3378 358.4975,-207.8489"/>
<text text-anchor="middle" x="444.5" y="-231.8" font-family="Roboto" font-size="14.00" fill="#000000">50.0</text>
</g>
<!-- 13 -->
<g id="node5" class="node">
<title>13</title>
<polygon fill="none" stroke="#0000ff" points="310,-384 93.9961,-366 310,-348 526.0039,-366 310,-384"/>
<text text-anchor="middle" x="310" y="-362.3" font-family="Roboto" font-size="14.00" fill="#000000">13:execCode(webServer,apache):0</text>
</g>
<!-- 13&#45;&gt;5 -->
<g id="edge4" class="edge">
<title>13&#45;&gt;5</title>
<path fill="none" stroke="#000000" d="M307.6907,-348.1671C306.0107,-334.2571 303.8822,-314.4366 303,-297 302.1915,-281.0204 302.1915,-276.9796 303,-261 303.6823,-247.5138 305.1102,-232.6017 306.4995,-220.101"/>
<polygon fill="#000000" stroke="#000000" points="310.0149,-220.1697 307.6907,-209.8329 303.0616,-219.3629 310.0149,-220.1697"/>
<text text-anchor="middle" x="317.5" y="-275.3" font-family="Roboto" font-size="14.00" fill="#000000">50.0</text>
</g>
<!-- 13&#45;&gt;8 -->
<g id="edge5" class="edge">
<title>13&#45;&gt;8</title>
<path fill="none" stroke="#000000" d="M346.9598,-351.0442C383.5956,-336.2195 439.8011,-313.4758 479.2375,-297.5178"/>
<polygon fill="#000000" stroke="#000000" points="480.9234,-300.6114 488.8803,-293.6159 478.2976,-294.1225 480.9234,-300.6114"/>
<text text-anchor="middle" x="444.5" y="-318.8" font-family="Roboto" font-size="14.00" fill="#000000">50.0</text>
</g>
<!-- 0 -->
<g id="node6" class="node">
<title>0</title>
<ellipse fill="none" stroke="#000000" cx="310" cy="-453" rx="27" ry="18"/>
<text text-anchor="middle" x="310" y="-449.3" font-family="Roboto" font-size="14.00" fill="#000000">0</text>
</g>
<!-- 0&#45;&gt;13 -->
<g id="edge6" class="edge">
<title>0&#45;&gt;13</title>
<path fill="none" stroke="#000000" d="M310,-434.9735C310,-423.1918 310,-407.5607 310,-394.1581"/>
<polygon fill="#000000" stroke="#000000" points="313.5001,-394.0033 310,-384.0034 306.5001,-394.0034 313.5001,-394.0033"/>
<text text-anchor="middle" x="324.5" y="-405.8" font-family="Roboto" font-size="14.00" fill="#000000">50.0</text>
</g>
</g>
</svg>
