<?xml version="1.0" encoding="UTF-8" standalone="no"?>
<!DOCTYPE svg PUBLIC "-//W3C//DTD SVG 1.1//EN"
 "http://www.w3.org/Graphics/SVG/1.1/DTD/svg11.dtd">
<!-- Generated by graphviz version 2.40.1 (20161225.0304)
 -->
<!-- Title: small_enterprise Pages: 1 -->
<svg width="675pt" height="452pt"
 viewBox="0.00 0.00 675.00 452.00" xmlns="http://www.w3.org/2000/svg" xmlns:xlink="http://www.w3.org/1999/xlink">
<g id="graph0" class="graph" transform="scale(1 1) rotate(0) translate(4 448)">
<title>small_enterprise</title>
<polygon fill="#ffffff" stroke="transparent" points="-4,4 -4,-448 671,-448 671,4 -4,4"/>
<text text-anchor="middle" x="333.5" y="-420.8" font-family="Times,serif" font-size="24.00" fill="#000000">Normalized Weights for </text>
<text text-anchor="middle" x="333.5" y="-394.8" font-family="Times,serif" font-size="24.00" fill="#000000">Transition Matrix</text>
<!-- 1 -->
<g id="node1" class="node">
<title>1</title>
<polygon fill="none" stroke="#0000ff" points="310,-36 110.5,-18 310,0 509.5,-18 310,-36"/>
<text text-anchor="middle" x="310" y="-14.3" font-family="Roboto" font-size="14.00" fill="#000000">1:execCode(workStation,root):0</text>
</g>
<!-- 1&#45;&gt;1 -->
<g id="edge1" class="edge">
<title>1&#45;&gt;1</title>
<path fill="none" stroke="#000000" d="M424.4154,-25.6875C479.2005,-26.6226 527.5,-24.0601 527.5,-18 527.5,-12.3187 485.0492,-9.7114 434.6014,-10.1781"/>
<polygon fill="#000000" stroke="#000000" points="434.3683,-6.6808 424.4154,-10.3125 434.4607,-13.6802 434.3683,-6.6808"/>
<text text-anchor="middle" x="538" y="-14.3" font-family="Roboto" font-size="14.00" fill="#000000">1.0</text>
</g>
<!-- 3 -->
<g id="node2" class="node">
<title>3</title>
<polygon fill="none" stroke="#0000ff" points="310,-123 0,-105 310,-87 620,-105 310,-123"/>
<text text-anchor="middle" x="310" y="-101.3" font-family="Roboto" font-size="14.00" fill="#000000">3:accessFile(workStation,write,&#39;/usr/local/share&#39;):0</text>
</g>
<!-- 3&#45;&gt;1 -->
<g id="edge2" class="edge">
<title>3&#45;&gt;1</title>
<path fill="none" stroke="#000000" d="M310,-86.9735C310,-75.1918 310,-59.5607 310,-46.1581"/>
<polygon fill="#000000" stroke="#000000" points="313.5001,-46.0033 310,-36.0034 306.5001,-46.0034 313.5001,-46.0033"/>
<text text-anchor="middle" x="324.5" y="-57.8" font-family="Roboto" font-size="14.00" fill="#000000">0.31</text>
</g>
<!-- 3&#45;&gt;3 -->
<g id="edge3" class="edge">
<title>3&#45;&gt;3</title>
<path fill="none" stroke="#000000" d="M487.1463,-112.7361C567.8482,-113.526 638,-110.9473 638,-105 638,-99.3083 573.7474,-96.7019 497.4861,-97.1807"/>
<polygon fill="#000000" stroke="#000000" points="497.1178,-93.6835 487.1463,-97.2639 497.1741,-100.6833 497.1178,-93.6835"/>
<text text-anchor="middle" x="652.5" y="-101.3" font-family="Roboto" font-size="14.00" fill="#000000">0.69</text>
</g>
<!-- 5 -->
<g id="node3" class="node">
<title>5</title>
<polygon fill="none" stroke="#0000ff" points="310,-210 68.023,-192 310,-174 551.977,-192 310,-210"/>
<text text-anchor="middle" x="310" y="-188.3" font-family="Roboto" font-size="14.00" fill="#000000">5:accessFile(fileServer,write,&#39;/export&#39;):0</text>
</g>
<!-- 5&#45;&gt;3 -->
<g id="edge4" class="edge">
<title>5&#45;&gt;3</title>
<path fill="none" stroke="#000000" d="M310,-173.9735C310,-162.1918 310,-146.5607 310,-133.1581"/>
<polygon fill="#000000" stroke="#000000" points="313.5001,-133.0033 310,-123.0034 306.5001,-133.0034 313.5001,-133.0033"/>
<text text-anchor="middle" x="324.5" y="-144.8" font-family="Roboto" font-size="14.00" fill="#000000">0.38</text>
</g>
<!-- 5&#45;&gt;5 -->
<g id="edge5" class="edge">
<title>5&#45;&gt;5</title>
<path fill="none" stroke="#000000" d="M448.6249,-199.7149C513.2243,-200.5702 569.7384,-197.9985 569.7384,-192 569.7384,-186.3178 519.0276,-183.7106 458.7702,-184.1784"/>
<polygon fill="#000000" stroke="#000000" points="458.5875,-180.68 448.6249,-184.2851 458.6612,-187.6796 458.5875,-180.68"/>
<text text-anchor="middle" x="584.2384" y="-188.3" font-family="Roboto" font-size="14.00" fill="#000000">0.62</text>
</g>
<!-- 8 -->
<g id="node4" class="node">
<title>8</title>
<polygon fill="none" stroke="#0000ff" points="401,-297 217,-279 401,-261 585,-279 401,-297"/>
<text text-anchor="middle" x="401" y="-275.3" font-family="Roboto" font-size="14.00" fill="#000000">8:execCode(fileServer,root):0</text>
</g>
<!-- 8&#45;&gt;5 -->
<g id="edge6" class="edge">
<title>8&#45;&gt;5</title>
<path fill="none" stroke="#000000" d="M383.8836,-262.636C370.0791,-249.4383 350.4709,-230.692 334.9234,-215.8278"/>
<polygon fill="#000000" stroke="#000000" points="337.3072,-213.2647 327.6604,-208.8841 332.4699,-218.3244 337.3072,-213.2647"/>
<text text-anchor="middle" x="374.5" y="-231.8" font-family="Roboto" font-size="14.00" fill="#000000">0.57</text>
</g>
<!-- 8&#45;&gt;8 -->
<g id="edge7" class="edge">
<title>8&#45;&gt;8</title>
<path fill="none" stroke="#000000" d="M506.7449,-286.6779C557.8384,-287.6399 603,-285.0806 603,-279 603,-273.3232 563.6372,-270.7156 516.8337,-271.177"/>
<polygon fill="#000000" stroke="#000000" points="516.6935,-267.6786 506.7449,-271.3221 516.7942,-274.6779 516.6935,-267.6786"/>
<text text-anchor="middle" x="617.5" y="-275.3" font-family="Roboto" font-size="14.00" fill="#000000">0.43</text>
</g>
<!-- 13 -->
<g id="node5" class="node">
<title>13</title>
<polygon fill="none" stroke="#0000ff" points="285,-384 68.9961,-366 285,-348 501.0039,-366 285,-384"/>
<text text-anchor="middle" x="285" y="-362.3" font-family="Roboto" font-size="14.00" fill="#000000">13:execCode(webServer,apache):0</text>
</g>
<!-- 13&#45;&gt;5 -->
<g id="edge8" class="edge">
<title>13&#45;&gt;5</title>
<path fill="none" stroke="#000000" d="M248.7567,-350.8478C209.8213,-332.2339 156.3805,-298.4794 179,-261 193.8457,-236.4013 220.7006,-220.1293 246.2478,-209.6021"/>
<polygon fill="#000000" stroke="#000000" points="247.5218,-212.8621 255.5761,-205.9789 244.9873,-206.337 247.5218,-212.8621"/>
<text text-anchor="middle" x="193.5" y="-275.3" font-family="Roboto" font-size="14.00" fill="#000000">0.36</text>
</g>
<!-- 13&#45;&gt;8 -->
<g id="edge9" class="edge">
<title>13&#45;&gt;8</title>
<path fill="none" stroke="#000000" d="M306.8187,-349.636C325.0802,-335.9399 351.309,-316.2682 371.4519,-301.161"/>
<polygon fill="#000000" stroke="#000000" points="373.771,-303.7968 379.671,-294.9967 369.571,-298.1968 373.771,-303.7968"/>
<text text-anchor="middle" x="363.5" y="-318.8" font-family="Roboto" font-size="14.00" fill="#000000">0.31</text>
</g>
<!-- 13&#45;&gt;13 -->
<g id="edge10" class="edge">
<title>13&#45;&gt;13</title>
<path fill="none" stroke="#000000" d="M408.6943,-373.6969C467.389,-374.6052 519.002,-372.0396 519.002,-366 519.002,-360.3143 473.2602,-357.7074 418.9299,-358.1792"/>
<polygon fill="#000000" stroke="#000000" points="418.6512,-354.6823 408.6943,-358.3031 418.736,-361.6817 418.6512,-354.6823"/>
<text text-anchor="middle" x="533.502" y="-362.3" font-family="Roboto" font-size="14.00" fill="#000000">0.33</text>
</g>
</g>
</svg>
