<?xml version="1.0" encoding="UTF-8" standalone="no"?>
<!DOCTYPE svg PUBLIC "-//W3C//DTD SVG 1.1//EN"
 "http://www.w3.org/Graphics/SVG/1.1/DTD/svg11.dtd">
<!-- Generated by graphviz version 2.40.1 (20161225.0304)
 -->
<!-- Title: small_enterprise Pages: 1 -->
<svg width="667pt" height="539pt"
 viewBox="0.00 0.00 667.00 539.00" xmlns="http://www.w3.org/2000/svg" xmlns:xlink="http://www.w3.org/1999/xlink">
<g id="graph0" class="graph" transform="scale(1 1) rotate(0) translate(4 535)">
<title>small_enterprise</title>
<polygon fill="#ffffff" stroke="transparent" points="-4,4 -4,-535 663,-535 663,4 -4,4"/>
<text text-anchor="middle" x="329.5" y="-507.8" font-family="Times,serif" font-size="24.00" fill="#000000">Normalized Rates for </text>
<text text-anchor="middle" x="329.5" y="-481.8" font-family="Times,serif" font-size="24.00" fill="#000000">Stochastic Measurements</text>
<!-- 1 -->
<g id="node1" class="node">
<title>1</title>
<polygon fill="none" stroke="#0000ff" points="310,-36 110.5,-18 310,0 509.5,-18 310,-36"/>
<text text-anchor="middle" x="310" y="-14.3" font-family="Roboto" font-size="14.00" fill="#000000">1:execCode(workStation,root):0</text>
</g>
<!-- 1&#45;&gt;1 -->
<g id="edge1" class="edge">
<title>1&#45;&gt;1</title>
<path fill="none" stroke="#000000" d="M424.4154,-25.6875C479.2005,-26.6226 527.5,-24.0601 527.5,-18 527.5,-12.3187 485.0492,-9.7114 434.6014,-10.1781"/>
<polygon fill="#000000" stroke="#000000" points="434.3683,-6.6808 424.4154,-10.3125 434.4607,-13.6802 434.3683,-6.6808"/>
<text text-anchor="middle" x="538" y="-14.3" font-family="Roboto" font-size="14.00" fill="#000000">1.0</text>
</g>
<!-- 3 -->
<g id="node2" class="node">
<title>3</title>
<polygon fill="none" stroke="#0000ff" points="310,-123 0,-105 310,-87 620,-105 310,-123"/>
<text text-anchor="middle" x="310" y="-101.3" font-family="Roboto" font-size="14.00" fill="#000000">3:accessFile(workStation,write,&#39;/usr/local/share&#39;):0</text>
</g>
<!-- 3&#45;&gt;1 -->
<g id="edge2" class="edge">
<title>3&#45;&gt;1</title>
<path fill="none" stroke="#000000" d="M310,-86.9735C310,-75.1918 310,-59.5607 310,-46.1581"/>
<polygon fill="#000000" stroke="#000000" points="313.5001,-46.0033 310,-36.0034 306.5001,-46.0034 313.5001,-46.0033"/>
<text text-anchor="middle" x="320.5" y="-57.8" font-family="Roboto" font-size="14.00" fill="#000000">1.0</text>
</g>
<!-- 3&#45;&gt;3 -->
<g id="edge3" class="edge">
<title>3&#45;&gt;3</title>
<path fill="none" stroke="#000000" d="M487.1463,-112.7361C567.8482,-113.526 638,-110.9473 638,-105 638,-99.3083 573.7474,-96.7019 497.4861,-97.1807"/>
<polygon fill="#000000" stroke="#000000" points="497.1178,-93.6835 487.1463,-97.2639 497.1741,-100.6833 497.1178,-93.6835"/>
<text text-anchor="middle" x="648.5" y="-101.3" font-family="Roboto" font-size="14.00" fill="#000000">0.0</text>
</g>
<!-- 5 -->
<g id="node3" class="node">
<title>5</title>
<polygon fill="none" stroke="#0000ff" points="310,-210 68.023,-192 310,-174 551.977,-192 310,-210"/>
<text text-anchor="middle" x="310" y="-188.3" font-family="Roboto" font-size="14.00" fill="#000000">5:accessFile(fileServer,write,&#39;/export&#39;):0</text>
</g>
<!-- 5&#45;&gt;3 -->
<g id="edge4" class="edge">
<title>5&#45;&gt;3</title>
<path fill="none" stroke="#000000" d="M310,-173.9735C310,-162.1918 310,-146.5607 310,-133.1581"/>
<polygon fill="#000000" stroke="#000000" points="313.5001,-133.0033 310,-123.0034 306.5001,-133.0034 313.5001,-133.0033"/>
<text text-anchor="middle" x="320.5" y="-144.8" font-family="Roboto" font-size="14.00" fill="#000000">0.0</text>
</g>
<!-- 5&#45;&gt;5 -->
<g id="edge5" class="edge">
<title>5&#45;&gt;5</title>
<path fill="none" stroke="#000000" d="M448.6249,-199.7149C513.2243,-200.5702 569.7384,-197.9985 569.7384,-192 569.7384,-186.3178 519.0276,-183.7106 458.7702,-184.1784"/>
<polygon fill="#000000" stroke="#000000" points="458.5875,-180.68 448.6249,-184.2851 458.6612,-187.6796 458.5875,-180.68"/>
<text text-anchor="middle" x="580.2384" y="-188.3" font-family="Roboto" font-size="14.00" fill="#000000">1.0</text>
</g>
<!-- 8 -->
<g id="node4" class="node">
<title>8</title>
<polygon fill="none" stroke="#0000ff" points="426,-297 242,-279 426,-261 610,-279 426,-297"/>
<text text-anchor="middle" x="426" y="-275.3" font-family="Roboto" font-size="14.00" fill="#000000">8:execCode(fileServer,root):0</text>
</g>
<!-- 8&#45;&gt;5 -->
<g id="edge6" class="edge">
<title>8&#45;&gt;5</title>
<path fill="none" stroke="#000000" d="M404.7238,-263.0429C386.5581,-249.4186 360.2277,-229.6708 339.9358,-214.4518"/>
<polygon fill="#000000" stroke="#000000" points="342.0295,-211.6472 331.9295,-208.4471 337.8295,-217.2472 342.0295,-211.6472"/>
<text text-anchor="middle" x="384.5" y="-231.8" font-family="Roboto" font-size="14.00" fill="#000000">1.0</text>
</g>
<!-- 8&#45;&gt;8 -->
<g id="edge7" class="edge">
<title>8&#45;&gt;8</title>
<path fill="none" stroke="#000000" d="M531.7449,-286.6779C582.8384,-287.6399 628,-285.0806 628,-279 628,-273.3232 588.6372,-270.7156 541.8337,-271.177"/>
<polygon fill="#000000" stroke="#000000" points="541.6935,-267.6786 531.7449,-271.3221 541.7942,-274.6779 541.6935,-267.6786"/>
<text text-anchor="middle" x="638.5" y="-275.3" font-family="Roboto" font-size="14.00" fill="#000000">0.0</text>
</g>
<!-- 13 -->
<g id="node5" class="node">
<title>13</title>
<polygon fill="none" stroke="#0000ff" points="310,-384 93.9961,-366 310,-348 526.0039,-366 310,-384"/>
<text text-anchor="middle" x="310" y="-362.3" font-family="Roboto" font-size="14.00" fill="#000000">13:execCode(webServer,apache):0</text>
</g>
<!-- 13&#45;&gt;5 -->
<g id="edge8" class="edge">
<title>13&#45;&gt;5</title>
<path fill="none" stroke="#000000" d="M269.7451,-351.3002C245.9882,-340.294 217.9213,-322.6729 204,-297 196.3731,-282.9348 196.3731,-275.0652 204,-261 216.0437,-238.7896 238.6748,-222.6055 259.943,-211.5175"/>
<polygon fill="#000000" stroke="#000000" points="261.5231,-214.6408 268.9397,-207.0747 258.4236,-208.3643 261.5231,-214.6408"/>
<text text-anchor="middle" x="218.5" y="-275.3" font-family="Roboto" font-size="14.00" fill="#000000">0.09</text>
</g>
<!-- 13&#45;&gt;8 -->
<g id="edge9" class="edge">
<title>13&#45;&gt;8</title>
<path fill="none" stroke="#000000" d="M331.8187,-349.636C350.0802,-335.9399 376.309,-316.2682 396.4519,-301.161"/>
<polygon fill="#000000" stroke="#000000" points="398.771,-303.7968 404.671,-294.9967 394.571,-298.1968 398.771,-303.7968"/>
<text text-anchor="middle" x="388.5" y="-318.8" font-family="Roboto" font-size="14.00" fill="#000000">0.45</text>
</g>
<!-- 13&#45;&gt;13 -->
<g id="edge10" class="edge">
<title>13&#45;&gt;13</title>
<path fill="none" stroke="#000000" d="M433.6943,-373.6969C492.389,-374.6052 544.002,-372.0396 544.002,-366 544.002,-360.3143 498.2602,-357.7074 443.9299,-358.1792"/>
<polygon fill="#000000" stroke="#000000" points="443.6512,-354.6823 433.6943,-358.3031 443.736,-361.6817 443.6512,-354.6823"/>
<text text-anchor="middle" x="558.502" y="-362.3" font-family="Roboto" font-size="14.00" fill="#000000">0.45</text>
</g>
<!-- 0 -->
<g id="node6" class="node">
<title>0</title>
<ellipse fill="none" stroke="#000000" cx="310" cy="-453" rx="27" ry="18"/>
<text text-anchor="middle" x="310" y="-449.3" font-family="Roboto" font-size="14.00" fill="#000000">0</text>
</g>
<!-- 0&#45;&gt;13 -->
<g id="edge11" class="edge">
<title>0&#45;&gt;13</title>
<path fill="none" stroke="#000000" d="M310,-434.9735C310,-423.1918 310,-407.5607 310,-394.1581"/>
<polygon fill="#000000" stroke="#000000" points="313.5001,-394.0033 310,-384.0034 306.5001,-394.0034 313.5001,-394.0033"/>
<text text-anchor="middle" x="320.5" y="-405.8" font-family="Roboto" font-size="14.00" fill="#000000">1.0</text>
</g>
<!-- 0&#45;&gt;0 -->
<g id="edge12" class="edge">
<title>0&#45;&gt;0</title>
<path fill="none" stroke="#000000" d="M334.5325,-460.752C345.5078,-461.4902 355,-458.9063 355,-453 355,-449.0317 350.7151,-446.5632 344.5743,-445.5944"/>
<polygon fill="#000000" stroke="#000000" points="344.6472,-442.0949 334.5325,-445.248 344.4059,-449.0908 344.6472,-442.0949"/>
<text text-anchor="middle" x="365.5" y="-449.3" font-family="Roboto" font-size="14.00" fill="#000000">0.0</text>
</g>
</g>
</svg>
