<?xml version="1.0" encoding="UTF-8" standalone="no"?>
<!DOCTYPE svg PUBLIC "-//W3C//DTD SVG 1.1//EN"
 "http://www.w3.org/Graphics/SVG/1.1/DTD/svg11.dtd">
<!-- Generated by graphviz version 2.40.1 (20161225.0304)
 -->
<!-- Title: small_enterprise Pages: 1 -->
<svg width="745pt" height="539pt"
 viewBox="0.00 0.00 745.00 539.00" xmlns="http://www.w3.org/2000/svg" xmlns:xlink="http://www.w3.org/1999/xlink">
<g id="graph0" class="graph" transform="scale(1 1) rotate(0) translate(4 535)">
<title>small_enterprise</title>
<polygon fill="#ffffff" stroke="transparent" points="-4,4 -4,-535 741.002,-535 741.002,4 -4,4"/>
<text text-anchor="middle" x="368.501" y="-507.8" font-family="Times,serif" font-size="24.00" fill="#000000">Override Transition Score by </text>
<text text-anchor="middle" x="368.501" y="-481.8" font-family="Times,serif" font-size="24.00" fill="#000000">Exploit ID or Rule ID</text>
<!-- 1 -->
<g id="node1" class="node">
<title>1</title>
<polygon fill="none" stroke="#0000ff" points="427.002,-36 227.502,-18 427.002,0 626.502,-18 427.002,-36"/>
<text text-anchor="middle" x="427.002" y="-14.3" font-family="Roboto" font-size="14.00" fill="#000000">1:execCode(workStation,root):0</text>
</g>
<!-- 3 -->
<g id="node2" class="node">
<title>3</title>
<polygon fill="none" stroke="#0000ff" points="427.002,-123 117.002,-105 427.002,-87 737.002,-105 427.002,-123"/>
<text text-anchor="middle" x="427.002" y="-101.3" font-family="Roboto" font-size="14.00" fill="#000000">3:accessFile(workStation,write,&#39;/usr/local/share&#39;):0</text>
</g>
<!-- 3&#45;&gt;1 -->
<g id="edge1" class="edge">
<title>3&#45;&gt;1</title>
<path fill="none" stroke="#000000" d="M427.002,-86.9735C427.002,-75.1918 427.002,-59.5607 427.002,-46.1581"/>
<polygon fill="#000000" stroke="#000000" points="430.5021,-46.0033 427.002,-36.0034 423.5021,-46.0034 430.5021,-46.0033"/>
<text text-anchor="middle" x="431.502" y="-57.8" font-family="Roboto" font-size="14.00" fill="#000000">4</text>
</g>
<!-- 5 -->
<g id="node3" class="node">
<title>5</title>
<polygon fill="none" stroke="#0000ff" points="427.002,-210 185.025,-192 427.002,-174 668.9789,-192 427.002,-210"/>
<text text-anchor="middle" x="427.002" y="-188.3" font-family="Roboto" font-size="14.00" fill="#000000">5:accessFile(fileServer,write,&#39;/export&#39;):0</text>
</g>
<!-- 5&#45;&gt;3 -->
<g id="edge2" class="edge">
<title>5&#45;&gt;3</title>
<path fill="none" stroke="#000000" d="M427.002,-173.9735C427.002,-162.1918 427.002,-146.5607 427.002,-133.1581"/>
<polygon fill="#000000" stroke="#000000" points="430.5021,-133.0033 427.002,-123.0034 423.5021,-133.0034 430.5021,-133.0033"/>
<text text-anchor="middle" x="431.502" y="-144.8" font-family="Roboto" font-size="14.00" fill="#000000">9</text>
</g>
<!-- 8 -->
<g id="node4" class="node">
<title>8</title>
<polygon fill="none" stroke="#0000ff" points="427.002,-297 243.002,-279 427.002,-261 611.002,-279 427.002,-297"/>
<text text-anchor="middle" x="427.002" y="-275.3" font-family="Roboto" font-size="14.00" fill="#000000">8:execCode(fileServer,root):0</text>
</g>
<!-- 8&#45;&gt;5 -->
<g id="edge3" class="edge">
<title>8&#45;&gt;5</title>
<path fill="none" stroke="#000000" d="M427.002,-260.9735C427.002,-249.1918 427.002,-233.5607 427.002,-220.1581"/>
<polygon fill="#000000" stroke="#000000" points="430.5021,-220.0033 427.002,-210.0034 423.5021,-220.0034 430.5021,-220.0033"/>
<text text-anchor="middle" x="431.502" y="-231.8" font-family="Roboto" font-size="14.00" fill="#000000">8</text>
</g>
<!-- 13 -->
<g id="node5" class="node">
<title>13</title>
<polygon fill="none" stroke="#0000ff" points="216.002,-384 -.002,-366 216.002,-348 432.0059,-366 216.002,-384"/>
<text text-anchor="middle" x="216.002" y="-362.3" font-family="Roboto" font-size="14.00" fill="#000000">13:execCode(webServer,apache):0</text>
</g>
<!-- 13&#45;&gt;5 -->
<g id="edge4" class="edge">
<title>13&#45;&gt;5</title>
<path fill="none" stroke="#000000" d="M212.1452,-348.3019C208.2826,-325.574 205.3936,-286.0796 225.002,-261 241.5137,-239.881 303.8779,-220.5949 354.9949,-207.8151"/>
<polygon fill="#000000" stroke="#000000" points="355.8459,-211.2102 364.7228,-205.4265 354.1767,-204.4122 355.8459,-211.2102"/>
<text text-anchor="middle" x="229.502" y="-275.3" font-family="Roboto" font-size="14.00" fill="#000000">7</text>
</g>
<!-- 13&#45;&gt;8 -->
<g id="edge5" class="edge">
<title>13&#45;&gt;8</title>
<path fill="none" stroke="#000000" d="M252.7554,-350.8458C288.6751,-336.0352 343.4266,-313.46 381.9498,-297.576"/>
<polygon fill="#000000" stroke="#000000" points="383.462,-300.7384 391.3728,-293.6907 380.7936,-294.2669 383.462,-300.7384"/>
<text text-anchor="middle" x="338.502" y="-318.8" font-family="Roboto" font-size="14.00" fill="#000000">6</text>
</g>
<!-- 0 -->
<g id="node6" class="node">
<title>0</title>
<ellipse fill="none" stroke="#000000" cx="216.002" cy="-453" rx="27" ry="18"/>
<text text-anchor="middle" x="216.002" y="-449.3" font-family="Roboto" font-size="14.00" fill="#000000">0</text>
</g>
<!-- 0&#45;&gt;13 -->
<g id="edge6" class="edge">
<title>0&#45;&gt;13</title>
<path fill="none" stroke="#000000" d="M216.002,-434.9735C216.002,-423.1918 216.002,-407.5607 216.002,-394.1581"/>
<polygon fill="#000000" stroke="#000000" points="219.5021,-394.0033 216.002,-384.0034 212.5021,-394.0034 219.5021,-394.0033"/>
<text text-anchor="middle" x="226.502" y="-405.8" font-family="Roboto" font-size="14.00" fill="#000000">6.5</text>
</g>
</g>
</svg>
