<?xml version="1.0" encoding="UTF-8" standalone="no"?>
<!DOCTYPE svg PUBLIC "-//W3C//DTD SVG 1.1//EN"
 "http://www.w3.org/Graphics/SVG/1.1/DTD/svg11.dtd">
<!-- Generated by graphviz version 2.40.1 (20161225.0304)
 -->
<!-- Title: small_enterprise Pages: 1 -->
<svg width="713pt" height="539pt"
 viewBox="0.00 0.00 713.00 539.00" xmlns="http://www.w3.org/2000/svg" xmlns:xlink="http://www.w3.org/1999/xlink">
<g id="graph0" class="graph" transform="scale(1 1) rotate(0) translate(4 535)">
<title>small_enterprise</title>
<polygon fill="#ffffff" stroke="transparent" points="-4,4 -4,-535 709,-535 709,4 -4,4"/>
<text text-anchor="middle" x="352.5" y="-507.8" font-family="Times,serif" font-size="24.00" fill="#000000">Reduced Attack Graph </text>
<text text-anchor="middle" x="352.5" y="-481.8" font-family="Times,serif" font-size="24.00" fill="#000000">Weighted by CVSS Scores</text>
<!-- 1 -->
<g id="node1" class="node">
<title>1</title>
<polygon fill="none" stroke="#0000ff" points="310,-36 110.5,-18 310,0 509.5,-18 310,-36"/>
<text text-anchor="middle" x="310" y="-14.3" font-family="Roboto" font-size="14.00" fill="#000000">1:execCode(workStation,root):0</text>
</g>
<!-- 3 -->
<g id="node2" class="node">
<title>3</title>
<polygon fill="none" stroke="#0000ff" points="310,-123 0,-105 310,-87 620,-105 310,-123"/>
<text text-anchor="middle" x="310" y="-101.3" font-family="Roboto" font-size="14.00" fill="#000000">3:accessFile(workStation,write,&#39;/usr/local/share&#39;):0</text>
</g>
<!-- 3&#45;&gt;1 -->
<g id="edge1" class="edge">
<title>3&#45;&gt;1</title>
<path fill="none" stroke="#000000" d="M310,-86.9735C310,-75.1918 310,-59.5607 310,-46.1581"/>
<polygon fill="#000000" stroke="#000000" points="313.5001,-46.0033 310,-36.0034 306.5001,-46.0034 313.5001,-46.0033"/>
<text text-anchor="middle" x="314.5" y="-57.8" font-family="Roboto" font-size="14.00" fill="#000000">4</text>
</g>
<!-- 5 -->
<g id="node3" class="node">
<title>5</title>
<polygon fill="none" stroke="#0000ff" points="310,-210 68.023,-192 310,-174 551.977,-192 310,-210"/>
<text text-anchor="middle" x="310" y="-188.3" font-family="Roboto" font-size="14.00" fill="#000000">5:accessFile(fileServer,write,&#39;/export&#39;):0</text>
</g>
<!-- 5&#45;&gt;3 -->
<g id="edge2" class="edge">
<title>5&#45;&gt;3</title>
<path fill="none" stroke="#000000" d="M310,-173.9735C310,-162.1918 310,-146.5607 310,-133.1581"/>
<polygon fill="#000000" stroke="#000000" points="313.5001,-133.0033 310,-123.0034 306.5001,-133.0034 313.5001,-133.0033"/>
<text text-anchor="middle" x="314.5" y="-144.8" font-family="Roboto" font-size="14.00" fill="#000000">9</text>
</g>
<!-- 8 -->
<g id="node4" class="node">
<title>8</title>
<polygon fill="none" stroke="#0000ff" points="521,-297 337,-279 521,-261 705,-279 521,-297"/>
<text text-anchor="middle" x="521" y="-275.3" font-family="Roboto" font-size="14.00" fill="#000000">8:execCode(fileServer,root):0</text>
</g>
<!-- 8&#45;&gt;5 -->
<g id="edge3" class="edge">
<title>8&#45;&gt;5</title>
<path fill="none" stroke="#000000" d="M485.6833,-264.4382C450.3176,-249.8561 395.695,-227.334 356.7513,-211.2766"/>
<polygon fill="#000000" stroke="#000000" points="357.7886,-207.9185 347.2094,-207.3423 355.1202,-214.39 357.7886,-207.9185"/>
<text text-anchor="middle" x="438.5" y="-231.8" font-family="Roboto" font-size="14.00" fill="#000000">1.3</text>
</g>
<!-- 13 -->
<g id="node5" class="node">
<title>13</title>
<polygon fill="none" stroke="#0000ff" points="310,-384 93.9961,-366 310,-348 526.0039,-366 310,-384"/>
<text text-anchor="middle" x="310" y="-362.3" font-family="Roboto" font-size="14.00" fill="#000000">13:execCode(webServer,apache):0</text>
</g>
<!-- 13&#45;&gt;5 -->
<g id="edge4" class="edge">
<title>13&#45;&gt;5</title>
<path fill="none" stroke="#000000" d="M310,-347.7078C310,-317.3436 310,-256.3226 310,-220.3464"/>
<polygon fill="#000000" stroke="#000000" points="313.5001,-220.0471 310,-210.0471 306.5001,-220.0471 313.5001,-220.0471"/>
<text text-anchor="middle" x="314.5" y="-275.3" font-family="Roboto" font-size="14.00" fill="#000000">7</text>
</g>
<!-- 13&#45;&gt;8 -->
<g id="edge5" class="edge">
<title>13&#45;&gt;8</title>
<path fill="none" stroke="#000000" d="M346.7534,-350.8458C382.6731,-336.0352 437.4247,-313.46 475.9478,-297.576"/>
<polygon fill="#000000" stroke="#000000" points="477.46,-300.7384 485.3708,-293.6907 474.7917,-294.2669 477.46,-300.7384"/>
<text text-anchor="middle" x="432.5" y="-318.8" font-family="Roboto" font-size="14.00" fill="#000000">6</text>
</g>
<!-- 0 -->
<g id="node6" class="node">
<title>0</title>
<ellipse fill="none" stroke="#000000" cx="310" cy="-453" rx="27" ry="18"/>
<text text-anchor="middle" x="310" y="-449.3" font-family="Roboto" font-size="14.00" fill="#000000">0</text>
</g>
<!-- 0&#45;&gt;13 -->
<g id="edge6" class="edge">
<title>0&#45;&gt;13</title>
<path fill="none" stroke="#000000" d="M310,-434.9735C310,-423.1918 310,-407.5607 310,-394.1581"/>
<polygon fill="#000000" stroke="#000000" points="313.5001,-394.0033 310,-384.0034 306.5001,-394.0034 313.5001,-394.0033"/>
<text text-anchor="middle" x="320.5" y="-405.8" font-family="Roboto" font-size="14.00" fill="#000000">6.5</text>
</g>
</g>
</svg>
