<?xml version="1.0" encoding="UTF-8" standalone="no"?>
<!DOCTYPE svg PUBLIC "-//W3C//DTD SVG 1.1//EN"
 "http://www.w3.org/Graphics/SVG/1.1/DTD/svg11.dtd">
<!-- Generated by graphviz version 2.40.1 (20161225.0304)
 -->
<!-- Title: small_enterprise Pages: 1 -->
<svg width="741pt" height="539pt"
 viewBox="0.00 0.00 741.00 539.00" xmlns="http://www.w3.org/2000/svg" xmlns:xlink="http://www.w3.org/1999/xlink">
<g id="graph0" class="graph" transform="scale(1 1) rotate(0) translate(4 535)">
<title>small_enterprise</title>
<polygon fill="#ffffff" stroke="transparent" points="-4,4 -4,-535 737,-535 737,4 -4,4"/>
<text text-anchor="middle" x="366.5" y="-507.8" font-family="Times,serif" font-size="24.00" fill="#000000">CVSS Scores Mapped</text>
<text text-anchor="middle" x="366.5" y="-481.8" font-family="Times,serif" font-size="24.00" fill="#000000">To Effort Based Scale</text>
<!-- 1 -->
<g id="node1" class="node">
<title>1</title>
<polygon fill="none" stroke="#0000ff" points="310,-36 110.5,-18 310,0 509.5,-18 310,-36"/>
<text text-anchor="middle" x="310" y="-14.3" font-family="Roboto" font-size="14.00" fill="#000000">1:execCode(workStation,root):0</text>
</g>
<!-- 3 -->
<g id="node2" class="node">
<title>3</title>
<polygon fill="none" stroke="#0000ff" points="310,-123 0,-105 310,-87 620,-105 310,-123"/>
<text text-anchor="middle" x="310" y="-101.3" font-family="Roboto" font-size="14.00" fill="#000000">3:accessFile(workStation,write,&#39;/usr/local/share&#39;):0</text>
</g>
<!-- 3&#45;&gt;1 -->
<g id="edge1" class="edge">
<title>3&#45;&gt;1</title>
<path fill="none" stroke="#000000" d="M310,-86.9735C310,-75.1918 310,-59.5607 310,-46.1581"/>
<polygon fill="#000000" stroke="#000000" points="313.5001,-46.0033 310,-36.0034 306.5001,-46.0034 313.5001,-46.0033"/>
<text text-anchor="middle" x="324.5" y="-57.8" font-family="Roboto" font-size="14.00" fill="#000000">10.0</text>
</g>
<!-- 5 -->
<g id="node3" class="node">
<title>5</title>
<polygon fill="none" stroke="#0000ff" points="310,-210 68.023,-192 310,-174 551.977,-192 310,-210"/>
<text text-anchor="middle" x="310" y="-188.3" font-family="Roboto" font-size="14.00" fill="#000000">5:accessFile(fileServer,write,&#39;/export&#39;):0</text>
</g>
<!-- 5&#45;&gt;3 -->
<g id="edge2" class="edge">
<title>5&#45;&gt;3</title>
<path fill="none" stroke="#000000" d="M310,-173.9735C310,-162.1918 310,-146.5607 310,-133.1581"/>
<polygon fill="#000000" stroke="#000000" points="313.5001,-133.0033 310,-123.0034 306.5001,-133.0034 313.5001,-133.0033"/>
<text text-anchor="middle" x="333" y="-144.8" font-family="Roboto" font-size="14.00" fill="#000000">1000.0</text>
</g>
<!-- 8 -->
<g id="node4" class="node">
<title>8</title>
<polygon fill="none" stroke="#0000ff" points="549,-297 365,-279 549,-261 733,-279 549,-297"/>
<text text-anchor="middle" x="549" y="-275.3" font-family="Roboto" font-size="14.00" fill="#000000">8:execCode(fileServer,root):0</text>
</g>
<!-- 8&#45;&gt;5 -->
<g id="edge3" class="edge">
<title>8&#45;&gt;5</title>
<path fill="none" stroke="#000000" d="M509.8016,-264.7311C469.0875,-249.9105 405.227,-226.6642 360.6978,-210.4548"/>
<polygon fill="#000000" stroke="#000000" points="361.8188,-207.1383 351.2248,-207.0065 359.4243,-213.716 361.8188,-207.1383"/>
<text text-anchor="middle" x="453.5" y="-231.8" font-family="Roboto" font-size="14.00" fill="#000000">1.0</text>
</g>
<!-- 13 -->
<g id="node5" class="node">
<title>13</title>
<polygon fill="none" stroke="#0000ff" points="326,-384 109.9961,-366 326,-348 542.0039,-366 326,-384"/>
<text text-anchor="middle" x="326" y="-362.3" font-family="Roboto" font-size="14.00" fill="#000000">13:execCode(webServer,apache):0</text>
</g>
<!-- 13&#45;&gt;5 -->
<g id="edge4" class="edge">
<title>13&#45;&gt;5</title>
<path fill="none" stroke="#000000" d="M324.1106,-348.1368C322.6563,-334.2106 320.6266,-314.383 319,-297 316.5758,-271.0942 314.0676,-241.5681 312.3169,-220.4383"/>
<polygon fill="#000000" stroke="#000000" points="315.7842,-219.8965 311.4748,-210.2177 308.8078,-220.4714 315.7842,-219.8965"/>
<text text-anchor="middle" x="337.5" y="-275.3" font-family="Roboto" font-size="14.00" fill="#000000">100.0</text>
</g>
<!-- 13&#45;&gt;8 -->
<g id="edge5" class="edge">
<title>13&#45;&gt;8</title>
<path fill="none" stroke="#000000" d="M364.0817,-351.143C402.3164,-336.2263 461.2853,-313.2205 502.3157,-297.2131"/>
<polygon fill="#000000" stroke="#000000" points="503.774,-300.4012 511.818,-293.506 501.2298,-293.8799 503.774,-300.4012"/>
<text text-anchor="middle" x="468.5" y="-318.8" font-family="Roboto" font-size="14.00" fill="#000000">100.0</text>
</g>
<!-- 0 -->
<g id="node6" class="node">
<title>0</title>
<ellipse fill="none" stroke="#000000" cx="326" cy="-453" rx="27" ry="18"/>
<text text-anchor="middle" x="326" y="-449.3" font-family="Roboto" font-size="14.00" fill="#000000">0</text>
</g>
<!-- 0&#45;&gt;13 -->
<g id="edge6" class="edge">
<title>0&#45;&gt;13</title>
<path fill="none" stroke="#000000" d="M326,-434.9735C326,-423.1918 326,-407.5607 326,-394.1581"/>
<polygon fill="#000000" stroke="#000000" points="329.5001,-394.0033 326,-384.0034 322.5001,-394.0034 329.5001,-394.0033"/>
<text text-anchor="middle" x="344.5" y="-405.8" font-family="Roboto" font-size="14.00" fill="#000000">100.0</text>
</g>
</g>
</svg>
