<?xml version="1.0" encoding="UTF-8" standalone="no"?>
<!DOCTYPE svg PUBLIC "-//W3C//DTD SVG 1.1//EN"
 "http://www.w3.org/Graphics/SVG/1.1/DTD/svg11.dtd">
<!-- Generated by graphviz version 2.40.1 (20161225.0304)
 -->
<!-- Title: small_enterprise Pages: 1 -->
<svg width="675pt" height="539pt"
 viewBox="0.00 0.00 675.00 539.00" xmlns="http://www.w3.org/2000/svg" xmlns:xlink="http://www.w3.org/1999/xlink">
<g id="graph0" class="graph" transform="scale(1 1) rotate(0) translate(4 535)">
<title>small_enterprise</title>
<polygon fill="#ffffff" stroke="transparent" points="-4,4 -4,-535 671,-535 671,4 -4,4"/>
<text text-anchor="middle" x="333.5" y="-507.8" font-family="Times,serif" font-size="24.00" fill="#000000">Self Edge Score Added To</text>
<text text-anchor="middle" x="333.5" y="-481.8" font-family="Times,serif" font-size="24.00" fill="#000000">Represent Failed Attacks</text>
<!-- 1 -->
<g id="node1" class="node">
<title>1</title>
<polygon fill="none" stroke="#0000ff" points="310,-36 110.5,-18 310,0 509.5,-18 310,-36"/>
<text text-anchor="middle" x="310" y="-14.3" font-family="Roboto" font-size="14.00" fill="#000000">1:execCode(workStation,root):0</text>
</g>
<!-- 1&#45;&gt;1 -->
<g id="edge1" class="edge">
<title>1&#45;&gt;1</title>
<path fill="none" stroke="#000000" d="M424.4154,-25.6875C479.2005,-26.6226 527.5,-24.0601 527.5,-18 527.5,-12.3187 485.0492,-9.7114 434.6014,-10.1781"/>
<polygon fill="#000000" stroke="#000000" points="434.3683,-6.6808 424.4154,-10.3125 434.4607,-13.6802 434.3683,-6.6808"/>
<text text-anchor="middle" x="538" y="-14.3" font-family="Roboto" font-size="14.00" fill="#000000">5.0</text>
</g>
<!-- 3 -->
<g id="node2" class="node">
<title>3</title>
<polygon fill="none" stroke="#0000ff" points="310,-123 0,-105 310,-87 620,-105 310,-123"/>
<text text-anchor="middle" x="310" y="-101.3" font-family="Roboto" font-size="14.00" fill="#000000">3:accessFile(workStation,write,&#39;/usr/local/share&#39;):0</text>
</g>
<!-- 3&#45;&gt;1 -->
<g id="edge2" class="edge">
<title>3&#45;&gt;1</title>
<path fill="none" stroke="#000000" d="M310,-86.9735C310,-75.1918 310,-59.5607 310,-46.1581"/>
<polygon fill="#000000" stroke="#000000" points="313.5001,-46.0033 310,-36.0034 306.5001,-46.0034 313.5001,-46.0033"/>
<text text-anchor="middle" x="320.5" y="-57.8" font-family="Roboto" font-size="14.00" fill="#000000">5.0</text>
</g>
<!-- 3&#45;&gt;3 -->
<g id="edge3" class="edge">
<title>3&#45;&gt;3</title>
<path fill="none" stroke="#000000" d="M487.1463,-112.7361C567.8482,-113.526 638,-110.9473 638,-105 638,-99.3083 573.7474,-96.7019 497.4861,-97.1807"/>
<polygon fill="#000000" stroke="#000000" points="497.1178,-93.6835 487.1463,-97.2639 497.1741,-100.6833 497.1178,-93.6835"/>
<text text-anchor="middle" x="652.5" y="-101.3" font-family="Roboto" font-size="14.00" fill="#000000">0.02</text>
</g>
<!-- 5 -->
<g id="node3" class="node">
<title>5</title>
<polygon fill="none" stroke="#0000ff" points="310,-210 68.023,-192 310,-174 551.977,-192 310,-210"/>
<text text-anchor="middle" x="310" y="-188.3" font-family="Roboto" font-size="14.00" fill="#000000">5:accessFile(fileServer,write,&#39;/export&#39;):0</text>
</g>
<!-- 5&#45;&gt;3 -->
<g id="edge4" class="edge">
<title>5&#45;&gt;3</title>
<path fill="none" stroke="#000000" d="M310,-173.9735C310,-162.1918 310,-146.5607 310,-133.1581"/>
<polygon fill="#000000" stroke="#000000" points="313.5001,-133.0033 310,-123.0034 306.5001,-133.0034 313.5001,-133.0033"/>
<text text-anchor="middle" x="324.5" y="-144.8" font-family="Roboto" font-size="14.00" fill="#000000">0.02</text>
</g>
<!-- 5&#45;&gt;5 -->
<g id="edge5" class="edge">
<title>5&#45;&gt;5</title>
<path fill="none" stroke="#000000" d="M448.6249,-199.7149C513.2243,-200.5702 569.7384,-197.9985 569.7384,-192 569.7384,-186.3178 519.0276,-183.7106 458.7702,-184.1784"/>
<polygon fill="#000000" stroke="#000000" points="458.5875,-180.68 448.6249,-184.2851 458.6612,-187.6796 458.5875,-180.68"/>
<text text-anchor="middle" x="592.7384" y="-188.3" font-family="Roboto" font-size="14.00" fill="#000000">5000.2</text>
</g>
<!-- 8 -->
<g id="node4" class="node">
<title>8</title>
<polygon fill="none" stroke="#0000ff" points="310,-297 126,-279 310,-261 494,-279 310,-297"/>
<text text-anchor="middle" x="310" y="-275.3" font-family="Roboto" font-size="14.00" fill="#000000">8:execCode(fileServer,root):0</text>
</g>
<!-- 8&#45;&gt;5 -->
<g id="edge6" class="edge">
<title>8&#45;&gt;5</title>
<path fill="none" stroke="#000000" d="M310,-260.9735C310,-249.1918 310,-233.5607 310,-220.1581"/>
<polygon fill="#000000" stroke="#000000" points="313.5001,-220.0033 310,-210.0034 306.5001,-220.0034 313.5001,-220.0033"/>
<text text-anchor="middle" x="333" y="-231.8" font-family="Roboto" font-size="14.00" fill="#000000">5000.0</text>
</g>
<!-- 8&#45;&gt;8 -->
<g id="edge7" class="edge">
<title>8&#45;&gt;8</title>
<path fill="none" stroke="#000000" d="M415.7449,-286.6779C466.8384,-287.6399 512,-285.0806 512,-279 512,-273.3232 472.6372,-270.7156 425.8337,-271.177"/>
<polygon fill="#000000" stroke="#000000" points="425.6935,-267.6786 415.7449,-271.3221 425.7942,-274.6779 425.6935,-267.6786"/>
<text text-anchor="middle" x="522.5" y="-275.3" font-family="Roboto" font-size="14.00" fill="#000000">1.0</text>
</g>
<!-- 13 -->
<g id="node5" class="node">
<title>13</title>
<polygon fill="none" stroke="#0000ff" points="310,-384 93.9961,-366 310,-348 526.0039,-366 310,-384"/>
<text text-anchor="middle" x="310" y="-362.3" font-family="Roboto" font-size="14.00" fill="#000000">13:execCode(webServer,apache):0</text>
</g>
<!-- 13&#45;&gt;5 -->
<g id="edge8" class="edge">
<title>13&#45;&gt;5</title>
<path fill="none" stroke="#000000" d="M243.8533,-353.4979C187.7824,-341.3966 113.7237,-321.3369 96,-297 59.5271,-246.9182 138.8986,-219.503 211.0965,-205.3711"/>
<polygon fill="#000000" stroke="#000000" points="212.044,-208.7543 221.2236,-203.4642 210.7486,-201.8752 212.044,-208.7543"/>
<text text-anchor="middle" x="106.5" y="-275.3" font-family="Roboto" font-size="14.00" fill="#000000">0.2</text>
</g>
<!-- 13&#45;&gt;8 -->
<g id="edge9" class="edge">
<title>13&#45;&gt;8</title>
<path fill="none" stroke="#000000" d="M310,-347.9735C310,-336.1918 310,-320.5607 310,-307.1581"/>
<polygon fill="#000000" stroke="#000000" points="313.5001,-307.0033 310,-297.0034 306.5001,-307.0034 313.5001,-307.0033"/>
<text text-anchor="middle" x="320.5" y="-318.8" font-family="Roboto" font-size="14.00" fill="#000000">1.0</text>
</g>
<!-- 13&#45;&gt;13 -->
<g id="edge10" class="edge">
<title>13&#45;&gt;13</title>
<path fill="none" stroke="#000000" d="M433.6943,-373.6969C492.389,-374.6052 544.002,-372.0396 544.002,-366 544.002,-360.3143 498.2602,-357.7074 443.9299,-358.1792"/>
<polygon fill="#000000" stroke="#000000" points="443.6512,-354.6823 433.6943,-358.3031 443.736,-361.6817 443.6512,-354.6823"/>
<text text-anchor="middle" x="554.502" y="-362.3" font-family="Roboto" font-size="14.00" fill="#000000">1.0</text>
</g>
<!-- 0 -->
<g id="node6" class="node">
<title>0</title>
<ellipse fill="none" stroke="#000000" cx="310" cy="-453" rx="27" ry="18"/>
<text text-anchor="middle" x="310" y="-449.3" font-family="Roboto" font-size="14.00" fill="#000000">0</text>
</g>
<!-- 0&#45;&gt;13 -->
<g id="edge11" class="edge">
<title>0&#45;&gt;13</title>
<path fill="none" stroke="#000000" d="M310,-434.9735C310,-423.1918 310,-407.5607 310,-394.1581"/>
<polygon fill="#000000" stroke="#000000" points="313.5001,-394.0033 310,-384.0034 306.5001,-394.0034 313.5001,-394.0033"/>
<text text-anchor="middle" x="320.5" y="-405.8" font-family="Roboto" font-size="14.00" fill="#000000">1.0</text>
</g>
<!-- 0&#45;&gt;0 -->
<g id="edge12" class="edge">
<title>0&#45;&gt;0</title>
<path fill="none" stroke="#000000" d="M334.5325,-460.752C345.5078,-461.4902 355,-458.9063 355,-453 355,-449.0317 350.7151,-446.5632 344.5743,-445.5944"/>
<polygon fill="#000000" stroke="#000000" points="344.6472,-442.0949 334.5325,-445.248 344.4059,-449.0908 344.6472,-442.0949"/>
<text text-anchor="middle" x="359.5" y="-449.3" font-family="Roboto" font-size="14.00" fill="#000000">0</text>
</g>
</g>
</svg>
