<?xml version="1.0" encoding="UTF-8" standalone="no"?>
<!DOCTYPE svg PUBLIC "-//W3C//DTD SVG 1.1//EN"
 "http://www.w3.org/Graphics/SVG/1.1/DTD/svg11.dtd">
<!-- Generated by graphviz version 2.40.1 (20161225.0304)
 -->
<!-- Title: small_enterprise Pages: 1 -->
<svg width="709pt" height="539pt"
 viewBox="0.00 0.00 709.00 539.00" xmlns="http://www.w3.org/2000/svg" xmlns:xlink="http://www.w3.org/1999/xlink">
<g id="graph0" class="graph" transform="scale(1 1) rotate(0) translate(4 535)">
<title>small_enterprise</title>
<polygon fill="#ffffff" stroke="transparent" points="-4,4 -4,-535 705,-535 705,4 -4,4"/>
<text text-anchor="middle" x="350.5" y="-507.8" font-family="Times,serif" font-size="24.00" fill="#000000">Unsetting Map Scores Returns to </text>
<text text-anchor="middle" x="350.5" y="-481.8" font-family="Times,serif" font-size="24.00" fill="#000000">Default Map with Fixed Scores</text>
<!-- 1 -->
<g id="node1" class="node">
<title>1</title>
<polygon fill="none" stroke="#0000ff" points="310,-36 110.5,-18 310,0 509.5,-18 310,-36"/>
<text text-anchor="middle" x="310" y="-14.3" font-family="Roboto" font-size="14.00" fill="#000000">1:execCode(workStation,root):0</text>
</g>
<!-- 3 -->
<g id="node2" class="node">
<title>3</title>
<polygon fill="none" stroke="#0000ff" points="310,-123 0,-105 310,-87 620,-105 310,-123"/>
<text text-anchor="middle" x="310" y="-101.3" font-family="Roboto" font-size="14.00" fill="#000000">3:accessFile(workStation,write,&#39;/usr/local/share&#39;):0</text>
</g>
<!-- 3&#45;&gt;1 -->
<g id="edge1" class="edge">
<title>3&#45;&gt;1</title>
<path fill="none" stroke="#000000" d="M310,-86.9735C310,-75.1918 310,-59.5607 310,-46.1581"/>
<polygon fill="#000000" stroke="#000000" points="313.5001,-46.0033 310,-36.0034 306.5001,-46.0034 313.5001,-46.0033"/>
<text text-anchor="middle" x="320.5" y="-57.8" font-family="Roboto" font-size="14.00" fill="#000000">2.7</text>
</g>
<!-- 5 -->
<g id="node3" class="node">
<title>5</title>
<polygon fill="none" stroke="#0000ff" points="310,-210 68.023,-192 310,-174 551.977,-192 310,-210"/>
<text text-anchor="middle" x="310" y="-188.3" font-family="Roboto" font-size="14.00" fill="#000000">5:accessFile(fileServer,write,&#39;/export&#39;):0</text>
</g>
<!-- 5&#45;&gt;3 -->
<g id="edge2" class="edge">
<title>5&#45;&gt;3</title>
<path fill="none" stroke="#000000" d="M310,-173.9735C310,-162.1918 310,-146.5607 310,-133.1581"/>
<polygon fill="#000000" stroke="#000000" points="313.5001,-133.0033 310,-123.0034 306.5001,-133.0034 313.5001,-133.0033"/>
<text text-anchor="middle" x="320.5" y="-144.8" font-family="Roboto" font-size="14.00" fill="#000000">2.7</text>
</g>
<!-- 8 -->
<g id="node4" class="node">
<title>8</title>
<polygon fill="none" stroke="#0000ff" points="517,-297 333,-279 517,-261 701,-279 517,-297"/>
<text text-anchor="middle" x="517" y="-275.3" font-family="Roboto" font-size="14.00" fill="#000000">8:execCode(fileServer,root):0</text>
</g>
<!-- 8&#45;&gt;5 -->
<g id="edge3" class="edge">
<title>8&#45;&gt;5</title>
<path fill="none" stroke="#000000" d="M481.8853,-264.2416C447.2197,-249.672 394.0285,-227.3163 356.0034,-211.3348"/>
<polygon fill="#000000" stroke="#000000" points="357.2583,-208.0657 346.6833,-207.4176 354.5461,-214.5189 357.2583,-208.0657"/>
<text text-anchor="middle" x="435.5" y="-231.8" font-family="Roboto" font-size="14.00" fill="#000000">2.7</text>
</g>
<!-- 13 -->
<g id="node5" class="node">
<title>13</title>
<polygon fill="none" stroke="#0000ff" points="310,-384 93.9961,-366 310,-348 526.0039,-366 310,-384"/>
<text text-anchor="middle" x="310" y="-362.3" font-family="Roboto" font-size="14.00" fill="#000000">13:execCode(webServer,apache):0</text>
</g>
<!-- 13&#45;&gt;5 -->
<g id="edge4" class="edge">
<title>13&#45;&gt;5</title>
<path fill="none" stroke="#000000" d="M307.6907,-348.1671C306.0107,-334.2571 303.8822,-314.4366 303,-297 302.1915,-281.0204 302.1915,-276.9796 303,-261 303.6823,-247.5138 305.1102,-232.6017 306.4995,-220.101"/>
<polygon fill="#000000" stroke="#000000" points="310.0149,-220.1697 307.6907,-209.8329 303.0616,-219.3629 310.0149,-220.1697"/>
<text text-anchor="middle" x="313.5" y="-275.3" font-family="Roboto" font-size="14.00" fill="#000000">2.7</text>
</g>
<!-- 13&#45;&gt;8 -->
<g id="edge5" class="edge">
<title>13&#45;&gt;8</title>
<path fill="none" stroke="#000000" d="M346.0566,-350.8458C381.2954,-336.0352 435.009,-313.46 472.8019,-297.576"/>
<polygon fill="#000000" stroke="#000000" points="474.1835,-300.792 482.0463,-293.6907 471.4713,-294.3388 474.1835,-300.792"/>
<text text-anchor="middle" x="435.5" y="-318.8" font-family="Roboto" font-size="14.00" fill="#000000">2.7</text>
</g>
<!-- 0 -->
<g id="node6" class="node">
<title>0</title>
<ellipse fill="none" stroke="#000000" cx="310" cy="-453" rx="27" ry="18"/>
<text text-anchor="middle" x="310" y="-449.3" font-family="Roboto" font-size="14.00" fill="#000000">0</text>
</g>
<!-- 0&#45;&gt;13 -->
<g id="edge6" class="edge">
<title>0&#45;&gt;13</title>
<path fill="none" stroke="#000000" d="M310,-434.9735C310,-423.1918 310,-407.5607 310,-394.1581"/>
<polygon fill="#000000" stroke="#000000" points="313.5001,-394.0033 310,-384.0034 306.5001,-394.0034 313.5001,-394.0033"/>
<text text-anchor="middle" x="320.5" y="-405.8" font-family="Roboto" font-size="14.00" fill="#000000">2.7</text>
</g>
</g>
</svg>
