<?xml version="1.0" encoding="UTF-8" standalone="no"?>
<!DOCTYPE svg PUBLIC "-//W3C//DTD SVG 1.1//EN"
 "http://www.w3.org/Graphics/SVG/1.1/DTD/svg11.dtd">
<!-- Generated by graphviz version 2.40.1 (20161225.0304)
 -->
<!-- Title: single_host_1 Pages: 1 -->
<svg width="273pt" height="360pt"
 viewBox="0.00 0.00 273.48 360.00" xmlns="http://www.w3.org/2000/svg" xmlns:xlink="http://www.w3.org/1999/xlink">
<g id="graph0" class="graph" transform="scale(.7073 .7073) rotate(0) translate(4 505)">
<title>single_host_1</title>
<polygon fill="#ffffff" stroke="transparent" points="-4,4 -4,-505 382.6684,-505 382.6684,4 -4,4"/>
<text text-anchor="middle" x="189.3342" y="-477.8" font-family="Times,serif" font-size="24.00" fill="#000000">Model: &lt;single_host_1&gt;</text>
<text text-anchor="middle" x="189.3342" y="-451.8" font-family="Times,serif" font-size="24.00" fill="#000000">Reduced Attack Graph</text>
<!-- 1 -->
<g id="node1" class="node">
<title>1</title>
<polygon fill="none" stroke="#0000ff" points="167,-36 59.5,-18 167,0 274.5,-18 167,-36"/>
<text text-anchor="middle" x="167" y="-16.1" font-family="Roboto" font-size="8.00" fill="#000000">1:execCode(workStation,root):0</text>
</g>
<!-- 3 -->
<g id="node2" class="node">
<title>3</title>
<polygon fill="none" stroke="#0000ff" points="167,-117 0,-99 167,-81 334,-99 167,-117"/>
<text text-anchor="middle" x="167" y="-97.1" font-family="Roboto" font-size="8.00" fill="#000000">3:accessFile(workStation,write,&#39;/usr/local/share&#39;):0</text>
</g>
<!-- 3&#45;&gt;1 -->
<g id="edge1" class="edge">
<title>3&#45;&gt;1</title>
<path fill="none" stroke="#000000" d="M167,-80.6198C167,-70.5034 167,-57.7309 167,-46.3637"/>
<polygon fill="#000000" stroke="#000000" points="170.5001,-46.0284 167,-36.0284 163.5001,-46.0284 170.5001,-46.0284"/>
<text text-anchor="middle" x="173" y="-56.6" font-family="Roboto" font-size="8.00" fill="#000000">1.0</text>
</g>
<!-- 5 -->
<g id="node3" class="node">
<title>5</title>
<polygon fill="none" stroke="#0000ff" points="167,-198 37,-180 167,-162 297,-180 167,-198"/>
<text text-anchor="middle" x="167" y="-178.1" font-family="Roboto" font-size="8.00" fill="#000000">5:accessFile(fileServer,write,&#39;/export&#39;):0</text>
</g>
<!-- 5&#45;&gt;3 -->
<g id="edge2" class="edge">
<title>5&#45;&gt;3</title>
<path fill="none" stroke="#000000" d="M167,-161.6198C167,-151.5034 167,-138.7309 167,-127.3637"/>
<polygon fill="#000000" stroke="#000000" points="170.5001,-127.0284 167,-117.0284 163.5001,-127.0284 170.5001,-127.0284"/>
<text text-anchor="middle" x="173" y="-137.6" font-family="Roboto" font-size="8.00" fill="#000000">0.2</text>
</g>
<!-- 8 -->
<g id="node4" class="node">
<title>8</title>
<polygon fill="none" stroke="#0000ff" points="280,-279 181.163,-261 280,-243 378.837,-261 280,-279"/>
<text text-anchor="middle" x="280" y="-259.1" font-family="Roboto" font-size="8.00" fill="#000000">8:execCode(fileServer,root):0</text>
</g>
<!-- 8&#45;&gt;5 -->
<g id="edge3" class="edge">
<title>8&#45;&gt;5</title>
<path fill="none" stroke="#000000" d="M259.7979,-246.5188C242.134,-233.8571 216.2618,-215.3115 196.32,-201.017"/>
<polygon fill="#000000" stroke="#000000" points="198.3445,-198.1619 188.1778,-195.1805 194.2663,-203.8512 198.3445,-198.1619"/>
<text text-anchor="middle" x="232" y="-218.6" font-family="Roboto" font-size="8.00" fill="#000000">1.0</text>
</g>
<!-- 13 -->
<g id="node5" class="node">
<title>13</title>
<polygon fill="none" stroke="#0000ff" points="167,-360 52.0756,-342 167,-324 281.9244,-342 167,-360"/>
<text text-anchor="middle" x="167" y="-340.1" font-family="Roboto" font-size="8.00" fill="#000000">13:execCode(webServer,apache):0</text>
</g>
<!-- 13&#45;&gt;5 -->
<g id="edge4" class="edge">
<title>13&#45;&gt;5</title>
<path fill="none" stroke="#000000" d="M164.4801,-324.1213C162.8369,-311.5341 160.8459,-294.2733 160,-279 159.1152,-263.0245 159.1152,-258.9755 160,-243 160.6344,-231.545 161.913,-218.9721 163.2058,-208.0913"/>
<polygon fill="#000000" stroke="#000000" points="166.715,-208.2352 164.4801,-197.8787 159.7688,-207.3684 166.715,-208.2352"/>
<text text-anchor="middle" x="166" y="-259.1" font-family="Roboto" font-size="8.00" fill="#000000">1.0</text>
</g>
<!-- 13&#45;&gt;8 -->
<g id="edge5" class="edge">
<title>13&#45;&gt;8</title>
<path fill="none" stroke="#000000" d="M187.7259,-327.1434C205.5975,-314.3327 231.5814,-295.7071 251.4255,-281.4826"/>
<polygon fill="#000000" stroke="#000000" points="253.6971,-284.1606 259.7856,-275.4899 249.6189,-278.4713 253.6971,-284.1606"/>
<text text-anchor="middle" x="232" y="-299.6" font-family="Roboto" font-size="8.00" fill="#000000">1.0</text>
</g>
<!-- 0 -->
<g id="node6" class="node">
<title>0</title>
<polygon fill="none" stroke="#000000" points="167,-405 194,-432 140,-432 167,-405"/>
<text text-anchor="middle" x="167" y="-421.1" font-family="Roboto" font-size="8.00" fill="#000000">0</text>
</g>
<!-- 0&#45;&gt;13 -->
<g id="edge6" class="edge">
<title>0&#45;&gt;13</title>
<path fill="none" stroke="#000000" d="M167,-404.6198C167,-394.5034 167,-381.7309 167,-370.3637"/>
<polygon fill="#000000" stroke="#000000" points="170.5001,-370.0284 167,-360.0284 163.5001,-370.0284 170.5001,-370.0284"/>
<text text-anchor="middle" x="173" y="-380.6" font-family="Roboto" font-size="8.00" fill="#000000">0.2</text>
</g>
</g>
</svg>
