<?xml version="1.0" encoding="UTF-8" standalone="no"?>
<!DOCTYPE svg PUBLIC "-//W3C//DTD SVG 1.1//EN"
 "http://www.w3.org/Graphics/SVG/1.1/DTD/svg11.dtd">
<!-- Generated by graphviz version 2.40.1 (20161225.0304)
 -->
<!-- Title: large_enterprise Pages: 1 -->
<svg width="1224pt" height="115pt"
 viewBox="0.00 0.00 1224.00 114.67" xmlns="http://www.w3.org/2000/svg" xmlns:xlink="http://www.w3.org/1999/xlink">
<g id="graph0" class="graph" transform="scale(.1437 .1437) rotate(0) translate(4 794)">
<title>large_enterprise</title>
<polygon fill="#ffffff" stroke="transparent" points="-4,4 -4,-794 8514,-794 8514,4 -4,4"/>
<text text-anchor="middle" x="4255" y="-766.8" font-family="Times,serif" font-size="24.00" fill="#000000">Attack Graph for large_enterprise model</text>
<!-- 1 -->
<g id="node1" class="node">
<title>1</title>
<polygon fill="none" stroke="#0000ff" points="2268,-324 2059.2025,-306 2268,-288 2476.7975,-306 2268,-324"/>
<text text-anchor="middle" x="2268" y="-302.3" font-family="Roboto" font-size="14.00" fill="#000000">1:execCode(dmz_host_10,root):0</text>
</g>
<!-- 2 -->
<g id="node2" class="node">
<title>2</title>
<ellipse fill="none" stroke="#ff0000" cx="2268" cy="-378" rx="115.8798" ry="18"/>
<text text-anchor="middle" x="2268" y="-374.3" font-family="Roboto" font-size="14.00" fill="#000000">2:RULE 1 (local exploit):0</text>
</g>
<!-- 2&#45;&gt;1 -->
<g id="edge1" class="edge">
<title>2&#45;&gt;1</title>
<path fill="none" stroke="#000000" d="M2268,-359.8314C2268,-352.131 2268,-342.9743 2268,-334.4166"/>
<polygon fill="#000000" stroke="#000000" points="2271.5001,-334.4132 2268,-324.4133 2264.5001,-334.4133 2271.5001,-334.4132"/>
</g>
<!-- 3 -->
<g id="node3" class="node">
<title>3</title>
<polygon fill="none" stroke="#00ff00" points="2853.5,-468 2224.5,-468 2224.5,-432 2853.5,-432 2853.5,-468"/>
<text text-anchor="middle" x="2539" y="-446.3" font-family="Roboto" font-size="14.00" fill="#000000">3:vulExists(dmz_host_10,dmz_host_10_localVul_0,localApplication,localExploit,privEscalation):1</text>
</g>
<!-- 3&#45;&gt;2 -->
<g id="edge2" class="edge">
<title>3&#45;&gt;2</title>
<path fill="none" stroke="#000000" d="M2470.9651,-431.9243C2429.8872,-421.0106 2377.7033,-407.1463 2336.5357,-396.2087"/>
<polygon fill="#000000" stroke="#000000" points="2337.4219,-392.8228 2326.8584,-393.6377 2335.6244,-399.5881 2337.4219,-392.8228"/>
</g>
<!-- 4 -->
<g id="node4" class="node">
<title>4</title>
<polygon fill="none" stroke="#0000ff" points="1996,-468 1785.5,-450 1996,-432 2206.5,-450 1996,-468"/>
<text text-anchor="middle" x="1996" y="-446.3" font-family="Roboto" font-size="14.00" fill="#000000">4:execCode(dmz_host_10,user):0</text>
</g>
<!-- 4&#45;&gt;2 -->
<g id="edge3" class="edge">
<title>4&#45;&gt;2</title>
<path fill="none" stroke="#000000" d="M2047.4809,-436.3727C2090.4733,-424.9924 2152.1352,-408.6701 2199.3298,-396.1774"/>
<polygon fill="#000000" stroke="#000000" points="2200.3977,-399.5153 2209.1691,-393.5729 2198.6064,-392.7484 2200.3977,-399.5153"/>
</g>
<!-- 5 -->
<g id="node5" class="node">
<title>5</title>
<ellipse fill="none" stroke="#ff0000" cx="2216" cy="-522" rx="208" ry="18"/>
<text text-anchor="middle" x="2216" y="-518.3" font-family="Roboto" font-size="14.00" fill="#000000">5:RULE 2 (remote exploit of a server program):0</text>
</g>
<!-- 5&#45;&gt;4 -->
<g id="edge4" class="edge">
<title>5&#45;&gt;4</title>
<path fill="none" stroke="#000000" d="M2162.7441,-504.5708C2128.4845,-493.3586 2084.1122,-478.8367 2049.755,-467.5925"/>
<polygon fill="#000000" stroke="#000000" points="2050.4853,-464.1489 2039.8926,-464.3649 2048.3079,-470.8017 2050.4853,-464.1489"/>
</g>
<!-- 6 -->
<g id="node6" class="node">
<title>6</title>
<polygon fill="none" stroke="#0000ff" points="1695,-612 1384.1496,-594 1695,-576 2005.8504,-594 1695,-612"/>
<text text-anchor="middle" x="1695" y="-590.3" font-family="Roboto" font-size="14.00" fill="#000000">6:netAccess(dmz_host_10,httpProtocol,httpPort):0</text>
</g>
<!-- 6&#45;&gt;5 -->
<g id="edge5" class="edge">
<title>6&#45;&gt;5</title>
<path fill="none" stroke="#000000" d="M1786.945,-581.2936C1872.7703,-569.4329 2001.3732,-551.6605 2095.401,-538.6663"/>
<polygon fill="#000000" stroke="#000000" points="2096.1112,-542.1015 2105.5379,-537.2654 2095.1529,-535.1674 2096.1112,-542.1015"/>
</g>
<!-- 12 -->
<g id="node7" class="node">
<title>12</title>
<ellipse fill="none" stroke="#ff0000" cx="1776" cy="-522" rx="214" ry="18"/>
<text text-anchor="middle" x="1776" y="-518.3" font-family="Roboto" font-size="14.00" fill="#000000">12:RULE 2 (remote exploit of a server program):0</text>
</g>
<!-- 6&#45;&gt;12 -->
<g id="edge6" class="edge">
<title>6&#45;&gt;12</title>
<path fill="none" stroke="#000000" d="M1714.1959,-576.937C1724.3828,-567.8819 1737.0837,-556.5923 1748.3176,-546.6066"/>
<polygon fill="#000000" stroke="#000000" points="1750.6628,-549.2049 1755.8116,-539.9453 1746.0122,-543.973 1750.6628,-549.2049"/>
</g>
<!-- 14 -->
<g id="node8" class="node">
<title>14</title>
<ellipse fill="none" stroke="#ff0000" cx="1330" cy="-522" rx="214" ry="18"/>
<text text-anchor="middle" x="1330" y="-518.3" font-family="Roboto" font-size="14.00" fill="#000000">14:RULE 2 (remote exploit of a server program):0</text>
</g>
<!-- 6&#45;&gt;14 -->
<g id="edge7" class="edge">
<title>6&#45;&gt;14</title>
<path fill="none" stroke="#000000" d="M1624.1915,-580.0323C1567.1239,-568.7751 1486.3812,-552.8478 1423.9169,-540.5261"/>
<polygon fill="#000000" stroke="#000000" points="1424.5435,-537.0823 1414.0552,-538.5807 1423.1887,-543.95 1424.5435,-537.0823"/>
</g>
<!-- 16 -->
<g id="node9" class="node">
<title>16</title>
<ellipse fill="none" stroke="#ff0000" cx="2656" cy="-522" rx="214" ry="18"/>
<text text-anchor="middle" x="2656" y="-518.3" font-family="Roboto" font-size="14.00" fill="#000000">16:RULE 2 (remote exploit of a server program):0</text>
</g>
<!-- 6&#45;&gt;16 -->
<g id="edge8" class="edge">
<title>6&#45;&gt;16</title>
<path fill="none" stroke="#000000" d="M1834.7876,-584.0853C1983.2253,-573.4836 2224.6954,-556.0276 2433,-540 2452.2151,-538.5215 2472.3588,-536.94 2492.3493,-535.3509"/>
<polygon fill="#000000" stroke="#000000" points="2492.7727,-538.8283 2502.4631,-534.5453 2492.2168,-531.8504 2492.7727,-538.8283"/>
</g>
<!-- 12&#45;&gt;4 -->
<g id="edge9" class="edge">
<title>12&#45;&gt;4</title>
<path fill="none" stroke="#000000" d="M1829.5367,-504.4789C1863.8022,-493.2648 1908.0964,-478.7685 1942.3783,-467.5489"/>
<polygon fill="#000000" stroke="#000000" points="1943.8032,-470.7653 1952.2185,-464.3285 1941.6259,-464.1125 1943.8032,-470.7653"/>
</g>
<!-- 14&#45;&gt;4 -->
<g id="edge10" class="edge">
<title>14&#45;&gt;4</title>
<path fill="none" stroke="#000000" d="M1461.5802,-507.7751C1588.201,-494.0864 1777.0578,-473.6694 1893.0598,-461.1287"/>
<polygon fill="#000000" stroke="#000000" points="1893.4478,-464.6072 1903.0137,-460.0526 1892.6954,-457.6478 1893.4478,-464.6072"/>
</g>
<!-- 16&#45;&gt;4 -->
<g id="edge11" class="edge">
<title>16&#45;&gt;4</title>
<path fill="none" stroke="#000000" d="M2525.2109,-507.7321C2400.0873,-494.0823 2213.9035,-473.7713 2098.9866,-461.2349"/>
<polygon fill="#000000" stroke="#000000" points="2099.1006,-457.7267 2088.78,-460.1215 2098.3414,-464.6854 2099.1006,-457.7267"/>
</g>
<!-- 7 -->
<g id="node10" class="node">
<title>7</title>
<ellipse fill="none" stroke="#ff0000" cx="3089" cy="-666" rx="155.5" ry="18"/>
<text text-anchor="middle" x="3089" y="-662.3" font-family="Roboto" font-size="14.00" fill="#000000">7:RULE 6 (direct network access):0</text>
</g>
<!-- 7&#45;&gt;6 -->
<g id="edge12" class="edge">
<title>7&#45;&gt;6</title>
<path fill="none" stroke="#000000" d="M2945.0997,-659.0544C2738.8632,-649.0356 2347.318,-629.7755 2014,-612 1964.2517,-609.347 1910.1467,-606.34 1860.865,-603.554"/>
<polygon fill="#000000" stroke="#000000" points="1860.933,-600.0523 1850.7512,-602.9815 1860.5373,-607.0411 1860.933,-600.0523"/>
</g>
<!-- 8 -->
<g id="node11" class="node">
<title>8</title>
<polygon fill="none" stroke="#00ff00" points="3263.5,-756 2914.5,-756 2914.5,-720 3263.5,-720 3263.5,-756"/>
<text text-anchor="middle" x="3089" y="-734.3" font-family="Roboto" font-size="14.00" fill="#000000">8:hacl(internet,dmz_host_10,httpProtocol,httpPort):1</text>
</g>
<!-- 8&#45;&gt;7 -->
<g id="edge13" class="edge">
<title>8&#45;&gt;7</title>
<path fill="none" stroke="#000000" d="M3089,-719.8314C3089,-712.131 3089,-702.9743 3089,-694.4166"/>
<polygon fill="#000000" stroke="#000000" points="3092.5001,-694.4132 3089,-684.4133 3085.5001,-694.4133 3092.5001,-694.4132"/>
</g>
<!-- 9 -->
<g id="node12" class="node">
<title>9</title>
<polygon fill="none" stroke="#00ff00" points="4179,-756 3979,-756 3979,-720 4179,-720 4179,-756"/>
<text text-anchor="middle" x="4079" y="-734.3" font-family="Roboto" font-size="14.00" fill="#000000">9:attackerLocated(internet):1</text>
</g>
<!-- 9&#45;&gt;7 -->
<g id="edge14" class="edge">
<title>9&#45;&gt;7</title>
<path fill="none" stroke="#000000" d="M3978.6254,-730.7C3801.6956,-717.8324 3433.8895,-691.0829 3231.0046,-676.3276"/>
<polygon fill="#000000" stroke="#000000" points="3231.0996,-672.8254 3220.8721,-675.5907 3230.5918,-679.8069 3231.0996,-672.8254"/>
</g>
<!-- 21 -->
<g id="node13" class="node">
<title>21</title>
<ellipse fill="none" stroke="#ff0000" cx="4744" cy="-666" rx="161.3716" ry="18"/>
<text text-anchor="middle" x="4744" y="-662.3" font-family="Roboto" font-size="14.00" fill="#000000">21:RULE 6 (direct network access):0</text>
</g>
<!-- 9&#45;&gt;21 -->
<g id="edge15" class="edge">
<title>9&#45;&gt;21</title>
<path fill="none" stroke="#000000" d="M4179.2772,-727.1429C4296.4754,-714.4538 4490.5553,-693.4406 4617.8693,-679.6563"/>
<polygon fill="#000000" stroke="#000000" points="4618.4979,-683.1087 4628.063,-678.5526 4617.7443,-676.1494 4618.4979,-683.1087"/>
</g>
<!-- 20 -->
<g id="node14" class="node">
<title>20</title>
<polygon fill="none" stroke="#0000ff" points="5093,-612 4739,-594 5093,-576 5447,-594 5093,-612"/>
<text text-anchor="middle" x="5093" y="-590.3" font-family="Roboto" font-size="14.00" fill="#000000">20:netAccess(fileServers_host_10,httpProtocol,httpPort):0</text>
</g>
<!-- 21&#45;&gt;20 -->
<g id="edge16" class="edge">
<title>21&#45;&gt;20</title>
<path fill="none" stroke="#000000" d="M4821.0216,-650.1102C4878.0439,-638.3462 4955.5133,-622.364 5013.1882,-610.4655"/>
<polygon fill="#000000" stroke="#000000" points="5013.9048,-613.8914 5022.9914,-608.443 5012.4904,-607.0358 5013.9048,-613.8914"/>
</g>
<!-- 19 -->
<g id="node15" class="node">
<title>19</title>
<ellipse fill="none" stroke="#ff0000" cx="5985" cy="-522" rx="214" ry="18"/>
<text text-anchor="middle" x="5985" y="-518.3" font-family="Roboto" font-size="14.00" fill="#000000">19:RULE 2 (remote exploit of a server program):0</text>
</g>
<!-- 20&#45;&gt;19 -->
<g id="edge17" class="edge">
<title>20&#45;&gt;19</title>
<path fill="none" stroke="#000000" d="M5229.933,-582.9471C5388.7851,-570.125 5650.5455,-548.9963 5820.3477,-535.2903"/>
<polygon fill="#000000" stroke="#000000" points="5820.6983,-538.7735 5830.3842,-534.4802 5820.135,-531.7962 5820.6983,-538.7735"/>
</g>
<!-- 25 -->
<g id="node16" class="node">
<title>25</title>
<ellipse fill="none" stroke="#ff0000" cx="5539" cy="-522" rx="214" ry="18"/>
<text text-anchor="middle" x="5539" y="-518.3" font-family="Roboto" font-size="14.00" fill="#000000">25:RULE 2 (remote exploit of a server program):0</text>
</g>
<!-- 20&#45;&gt;25 -->
<g id="edge18" class="edge">
<title>20&#45;&gt;25</title>
<path fill="none" stroke="#000000" d="M5177.939,-580.2879C5249.4145,-568.7492 5352.0871,-552.1743 5429.687,-539.6469"/>
<polygon fill="#000000" stroke="#000000" points="5430.6681,-543.034 5439.9825,-537.9849 5429.5524,-536.1234 5430.6681,-543.034"/>
</g>
<!-- 27 -->
<g id="node17" class="node">
<title>27</title>
<ellipse fill="none" stroke="#ff0000" cx="5093" cy="-522" rx="214" ry="18"/>
<text text-anchor="middle" x="5093" y="-518.3" font-family="Roboto" font-size="14.00" fill="#000000">27:RULE 2 (remote exploit of a server program):0</text>
</g>
<!-- 20&#45;&gt;27 -->
<g id="edge19" class="edge">
<title>20&#45;&gt;27</title>
<path fill="none" stroke="#000000" d="M5093,-575.8314C5093,-568.131 5093,-558.9743 5093,-550.4166"/>
<polygon fill="#000000" stroke="#000000" points="5096.5001,-550.4132 5093,-540.4133 5089.5001,-550.4133 5096.5001,-550.4132"/>
</g>
<!-- 18 -->
<g id="node23" class="node">
<title>18</title>
<polygon fill="none" stroke="#0000ff" points="5539,-468 5286,-450 5539,-432 5792,-450 5539,-468"/>
<text text-anchor="middle" x="5539" y="-446.3" font-family="Roboto" font-size="14.00" fill="#000000">18:execCode(fileServers_host_10,user):0</text>
</g>
<!-- 19&#45;&gt;18 -->
<g id="edge36" class="edge">
<title>19&#45;&gt;18</title>
<path fill="none" stroke="#000000" d="M5886.0181,-506.0209C5808.4431,-493.4975 5701.5091,-476.2346 5626.9229,-464.1938"/>
<polygon fill="#000000" stroke="#000000" points="5627.0496,-460.669 5616.6196,-462.5305 5625.9339,-467.5796 5627.0496,-460.669"/>
</g>
<!-- 25&#45;&gt;18 -->
<g id="edge37" class="edge">
<title>25&#45;&gt;18</title>
<path fill="none" stroke="#000000" d="M5539,-503.8314C5539,-496.131 5539,-486.9743 5539,-478.4166"/>
<polygon fill="#000000" stroke="#000000" points="5542.5001,-478.4132 5539,-468.4133 5535.5001,-478.4133 5542.5001,-478.4132"/>
</g>
<!-- 27&#45;&gt;18 -->
<g id="edge38" class="edge">
<title>27&#45;&gt;18</title>
<path fill="none" stroke="#000000" d="M5191.9819,-506.0209C5269.5569,-493.4975 5376.4909,-476.2346 5451.0771,-464.1938"/>
<polygon fill="#000000" stroke="#000000" points="5452.0661,-467.5796 5461.3804,-462.5305 5450.9504,-460.669 5452.0661,-467.5796"/>
</g>
<!-- 10 -->
<g id="node18" class="node">
<title>10</title>
<polygon fill="none" stroke="#00ff00" points="2568.5,-612 2023.5,-612 2023.5,-576 2568.5,-576 2568.5,-612"/>
<text text-anchor="middle" x="2296" y="-590.3" font-family="Roboto" font-size="14.00" fill="#000000">10:networkServiceInfo(dmz_host_10,serverApplication,httpProtocol,httpPort,user):1</text>
</g>
<!-- 10&#45;&gt;5 -->
<g id="edge20" class="edge">
<title>10&#45;&gt;5</title>
<path fill="none" stroke="#000000" d="M2275.8126,-575.8314C2266.1486,-567.1337 2254.4204,-556.5783 2243.9184,-547.1265"/>
<polygon fill="#000000" stroke="#000000" points="2245.9553,-544.251 2236.1809,-540.1628 2241.2725,-549.454 2245.9553,-544.251"/>
</g>
<!-- 10&#45;&gt;12 -->
<g id="edge21" class="edge">
<title>10&#45;&gt;12</title>
<path fill="none" stroke="#000000" d="M2165.7885,-575.9707C2083.5671,-564.5862 1978.0556,-549.9769 1897.5481,-538.8297"/>
<polygon fill="#000000" stroke="#000000" points="1897.7448,-535.3237 1887.3592,-537.419 1896.7846,-542.2575 1897.7448,-535.3237"/>
</g>
<!-- 10&#45;&gt;14 -->
<g id="edge22" class="edge">
<title>10&#45;&gt;14</title>
<path fill="none" stroke="#000000" d="M2041.0665,-575.9774C1897.6501,-565.7117 1715.3216,-552.4495 1553,-540 1533.7845,-538.5262 1513.6406,-536.9476 1493.65,-535.3601"/>
<polygon fill="#000000" stroke="#000000" points="1493.7823,-531.8596 1483.5361,-534.5551 1493.2269,-538.8375 1493.7823,-531.8596"/>
</g>
<!-- 10&#45;&gt;16 -->
<g id="edge23" class="edge">
<title>10&#45;&gt;16</title>
<path fill="none" stroke="#000000" d="M2386.3785,-575.9243C2440.2992,-565.1402 2508.6253,-551.4749 2563.0031,-540.5994"/>
<polygon fill="#000000" stroke="#000000" points="2563.8683,-543.9957 2572.9876,-538.6025 2562.4954,-537.1317 2563.8683,-543.9957"/>
</g>
<!-- 11 -->
<g id="node19" class="node">
<title>11</title>
<polygon fill="none" stroke="#00ff00" points="3261,-612 2587,-612 2587,-576 3261,-576 3261,-612"/>
<text text-anchor="middle" x="2924" y="-590.3" font-family="Roboto" font-size="14.00" fill="#000000">11:vulExists(dmz_host_10,dmz_host_10_remoteVul_0,serverApplication,remoteExploit,privEscalation):1</text>
</g>
<!-- 11&#45;&gt;5 -->
<g id="edge24" class="edge">
<title>11&#45;&gt;5</title>
<path fill="none" stroke="#000000" d="M2746.712,-575.9707C2627.6313,-563.8608 2472.6702,-548.1021 2360.9706,-536.7428"/>
<polygon fill="#000000" stroke="#000000" points="2361.2802,-533.2563 2350.9774,-535.7265 2360.5719,-540.2204 2361.2802,-533.2563"/>
</g>
<!-- 13 -->
<g id="node20" class="node">
<title>13</title>
<polygon fill="none" stroke="#00ff00" points="1366,-612 692,-612 692,-576 1366,-576 1366,-612"/>
<text text-anchor="middle" x="1029" y="-590.3" font-family="Roboto" font-size="14.00" fill="#000000">13:vulExists(dmz_host_10,dmz_host_10_remoteVul_1,serverApplication,remoteExploit,privEscalation):1</text>
</g>
<!-- 13&#45;&gt;12 -->
<g id="edge25" class="edge">
<title>13&#45;&gt;12</title>
<path fill="none" stroke="#000000" d="M1216.0539,-575.9707C1342.3454,-563.798 1506.8873,-547.9386 1624.8728,-536.5665"/>
<polygon fill="#000000" stroke="#000000" points="1625.4503,-540.0271 1635.0684,-535.5838 1624.7787,-533.0594 1625.4503,-540.0271"/>
</g>
<!-- 15 -->
<g id="node21" class="node">
<title>15</title>
<polygon fill="none" stroke="#00ff00" points="674,-612 0,-612 0,-576 674,-576 674,-612"/>
<text text-anchor="middle" x="337" y="-590.3" font-family="Roboto" font-size="14.00" fill="#000000">15:vulExists(dmz_host_10,dmz_host_10_remoteVul_2,serverApplication,remoteExploit,privEscalation):1</text>
</g>
<!-- 15&#45;&gt;14 -->
<g id="edge26" class="edge">
<title>15&#45;&gt;14</title>
<path fill="none" stroke="#000000" d="M585.3341,-575.9939C763.6679,-563.0634 999.5021,-545.9636 1157.5508,-534.5039"/>
<polygon fill="#000000" stroke="#000000" points="1158.1266,-537.9714 1167.8473,-533.7573 1157.6203,-530.9897 1158.1266,-537.9714"/>
</g>
<!-- 17 -->
<g id="node22" class="node">
<title>17</title>
<polygon fill="none" stroke="#00ff00" points="3953,-612 3279,-612 3279,-576 3953,-576 3953,-612"/>
<text text-anchor="middle" x="3616" y="-590.3" font-family="Roboto" font-size="14.00" fill="#000000">17:vulExists(dmz_host_10,dmz_host_10_remoteVul_3,serverApplication,remoteExploit,privEscalation):1</text>
</g>
<!-- 17&#45;&gt;16 -->
<g id="edge27" class="edge">
<title>17&#45;&gt;16</title>
<path fill="none" stroke="#000000" d="M3375.9187,-575.9939C3204.905,-563.1679 2979.1968,-546.2398 2826.4381,-534.7829"/>
<polygon fill="#000000" stroke="#000000" points="2826.2592,-531.2597 2816.0254,-534.0019 2825.7356,-538.2401 2826.2592,-531.2597"/>
</g>
<!-- 32 -->
<g id="node24" class="node">
<title>32</title>
<ellipse fill="none" stroke="#ff0000" cx="4787" cy="-378" rx="141.8751" ry="18"/>
<text text-anchor="middle" x="4787" y="-374.3" font-family="Roboto" font-size="14.00" fill="#000000">32:RULE 5 (multi&#45;hop access):0</text>
</g>
<!-- 18&#45;&gt;32 -->
<g id="edge28" class="edge">
<title>18&#45;&gt;32</title>
<path fill="none" stroke="#000000" d="M5430.8566,-439.6458C5293.0305,-426.4497 5055.3313,-403.6913 4910.5174,-389.8261"/>
<polygon fill="#000000" stroke="#000000" points="4910.542,-386.3126 4900.2539,-388.8435 4909.8748,-393.2807 4910.542,-386.3126"/>
</g>
<!-- 44 -->
<g id="node25" class="node">
<title>44</title>
<ellipse fill="none" stroke="#ff0000" cx="6856" cy="-378" rx="141.8751" ry="18"/>
<text text-anchor="middle" x="6856" y="-374.3" font-family="Roboto" font-size="14.00" fill="#000000">44:RULE 5 (multi&#45;hop access):0</text>
</g>
<!-- 18&#45;&gt;44 -->
<g id="edge29" class="edge">
<title>18&#45;&gt;44</title>
<path fill="none" stroke="#000000" d="M5682.1348,-442.1749C5936.1352,-428.2887 6462.6564,-399.504 6715.0701,-385.7046"/>
<polygon fill="#000000" stroke="#000000" points="6715.613,-389.1802 6725.407,-385.1395 6715.2309,-382.1907 6715.613,-389.1802"/>
</g>
<!-- 31 -->
<g id="node26" class="node">
<title>31</title>
<polygon fill="none" stroke="#0000ff" points="4487,-324 4140.4554,-306 4487,-288 4833.5446,-306 4487,-324"/>
<text text-anchor="middle" x="4487" y="-302.3" font-family="Roboto" font-size="14.00" fill="#000000">31:netAccess(fileServers_host_9,httpProtocol,httpPort):0</text>
</g>
<!-- 32&#45;&gt;31 -->
<g id="edge30" class="edge">
<title>32&#45;&gt;31</title>
<path fill="none" stroke="#000000" d="M4720.4203,-362.0209C4672.456,-350.5094 4607.806,-334.9934 4558.7067,-323.2096"/>
<polygon fill="#000000" stroke="#000000" points="4559.3315,-319.7602 4548.7908,-320.8298 4557.6978,-326.5669 4559.3315,-319.7602"/>
</g>
<!-- 43 -->
<g id="node27" class="node">
<title>43</title>
<polygon fill="none" stroke="#0000ff" points="7362,-324 6999.704,-306 7362,-288 7724.296,-306 7362,-324"/>
<text text-anchor="middle" x="7362" y="-302.3" font-family="Roboto" font-size="14.00" fill="#000000">43:netAccess(workStation_host_10,httpProtocol,httpPort):0</text>
</g>
<!-- 44&#45;&gt;43 -->
<g id="edge31" class="edge">
<title>44&#45;&gt;43</title>
<path fill="none" stroke="#000000" d="M6950.5811,-364.5418C7037.9809,-352.1055 7167.5857,-333.6637 7257.8963,-320.8132"/>
<polygon fill="#000000" stroke="#000000" points="7258.4757,-324.2661 7267.8828,-319.3922 7257.4895,-317.3359 7258.4757,-324.2661"/>
</g>
<!-- 30 -->
<g id="node28" class="node">
<title>30</title>
<ellipse fill="none" stroke="#ff0000" cx="3887" cy="-234" rx="214" ry="18"/>
<text text-anchor="middle" x="3887" y="-230.3" font-family="Roboto" font-size="14.00" fill="#000000">30:RULE 2 (remote exploit of a server program):0</text>
</g>
<!-- 31&#45;&gt;30 -->
<g id="edge32" class="edge">
<title>31&#45;&gt;30</title>
<path fill="none" stroke="#000000" d="M4382.1449,-293.4174C4281.488,-281.3386 4129.056,-263.0467 4019.9273,-249.9513"/>
<polygon fill="#000000" stroke="#000000" points="4020.1821,-246.4568 4009.8363,-248.7404 4019.3481,-253.407 4020.1821,-246.4568"/>
</g>
<!-- 36 -->
<g id="node29" class="node">
<title>36</title>
<ellipse fill="none" stroke="#ff0000" cx="4384" cy="-234" rx="214" ry="18"/>
<text text-anchor="middle" x="4384" y="-230.3" font-family="Roboto" font-size="14.00" fill="#000000">36:RULE 2 (remote exploit of a server program):0</text>
</g>
<!-- 31&#45;&gt;36 -->
<g id="edge33" class="edge">
<title>31&#45;&gt;36</title>
<path fill="none" stroke="#000000" d="M4462.8511,-289.1192C4449.5301,-279.8074 4432.7698,-268.0915 4418.1304,-257.8582"/>
<polygon fill="#000000" stroke="#000000" points="4419.9995,-254.8943 4409.7981,-252.0336 4415.9889,-260.6316 4419.9995,-254.8943"/>
</g>
<!-- 42 -->
<g id="node30" class="node">
<title>42</title>
<ellipse fill="none" stroke="#ff0000" cx="6743" cy="-234" rx="214" ry="18"/>
<text text-anchor="middle" x="6743" y="-230.3" font-family="Roboto" font-size="14.00" fill="#000000">42:RULE 2 (remote exploit of a server program):0</text>
</g>
<!-- 43&#45;&gt;42 -->
<g id="edge34" class="edge">
<title>43&#45;&gt;42</title>
<path fill="none" stroke="#000000" d="M7253.4701,-293.3762C7149.1323,-281.24 6991.1094,-262.8592 6878.5471,-249.7664"/>
<polygon fill="#000000" stroke="#000000" points="6878.8198,-246.2746 6868.4823,-248.5957 6878.0109,-253.2277 6878.8198,-246.2746"/>
</g>
<!-- 48 -->
<g id="node31" class="node">
<title>48</title>
<ellipse fill="none" stroke="#ff0000" cx="7304" cy="-234" rx="214" ry="18"/>
<text text-anchor="middle" x="7304" y="-230.3" font-family="Roboto" font-size="14.00" fill="#000000">48:RULE 2 (remote exploit of a server program):0</text>
</g>
<!-- 43&#45;&gt;48 -->
<g id="edge35" class="edge">
<title>43&#45;&gt;48</title>
<path fill="none" stroke="#000000" d="M7347.9598,-288.5708C7341.0624,-280.0085 7332.6102,-269.5161 7324.9664,-260.0272"/>
<polygon fill="#000000" stroke="#000000" points="7327.5156,-257.6125 7318.5166,-252.0206 7322.0643,-262.0038 7327.5156,-257.6125"/>
</g>
<!-- 29 -->
<g id="node37" class="node">
<title>29</title>
<polygon fill="none" stroke="#0000ff" points="4161,-180 3915.5,-162 4161,-144 4406.5,-162 4161,-180"/>
<text text-anchor="middle" x="4161" y="-158.3" font-family="Roboto" font-size="14.00" fill="#000000">29:execCode(fileServers_host_9,user):0</text>
</g>
<!-- 30&#45;&gt;29 -->
<g id="edge46" class="edge">
<title>30&#45;&gt;29</title>
<path fill="none" stroke="#000000" d="M3952.2817,-216.8457C3996.1897,-205.3078 4053.7852,-190.1732 4097.3487,-178.7259"/>
<polygon fill="#000000" stroke="#000000" points="4098.4782,-182.048 4107.2603,-176.1214 4096.6991,-175.2778 4098.4782,-182.048"/>
</g>
<!-- 36&#45;&gt;29 -->
<g id="edge47" class="edge">
<title>36&#45;&gt;29</title>
<path fill="none" stroke="#000000" d="M4330.0179,-216.5708C4295.4955,-205.4246 4250.8429,-191.0076 4216.1041,-179.7915"/>
<polygon fill="#000000" stroke="#000000" points="4217.1772,-176.4601 4206.5855,-176.7182 4215.0264,-183.1215 4217.1772,-176.4601"/>
</g>
<!-- 41 -->
<g id="node45" class="node">
<title>41</title>
<polygon fill="none" stroke="#0000ff" points="6966,-180 6704.9187,-162 6966,-144 7227.0813,-162 6966,-180"/>
<text text-anchor="middle" x="6966" y="-158.3" font-family="Roboto" font-size="14.00" fill="#000000">41:execCode(workStation_host_10,user):0</text>
</g>
<!-- 42&#45;&gt;41 -->
<g id="edge58" class="edge">
<title>42&#45;&gt;41</title>
<path fill="none" stroke="#000000" d="M6796.9821,-216.5708C6831.2396,-205.5101 6875.4725,-191.2286 6910.0946,-180.0502"/>
<polygon fill="#000000" stroke="#000000" points="6911.6069,-183.2399 6920.0478,-176.8366 6909.4561,-176.5785 6911.6069,-183.2399"/>
</g>
<!-- 48&#45;&gt;41 -->
<g id="edge59" class="edge">
<title>48&#45;&gt;41</title>
<path fill="none" stroke="#000000" d="M7225.1806,-217.2101C7169.2619,-205.2984 7094.7147,-189.4185 7039.9269,-177.7477"/>
<polygon fill="#000000" stroke="#000000" points="7040.4455,-174.2797 7029.9357,-175.6194 7038.987,-181.1261 7040.4455,-174.2797"/>
</g>
<!-- 22 -->
<g id="node32" class="node">
<title>22</title>
<polygon fill="none" stroke="#00ff00" points="4941.5,-756 4546.5,-756 4546.5,-720 4941.5,-720 4941.5,-756"/>
<text text-anchor="middle" x="4744" y="-734.3" font-family="Roboto" font-size="14.00" fill="#000000">22:hacl(internet,fileServers_host_10,httpProtocol,httpPort):1</text>
</g>
<!-- 22&#45;&gt;21 -->
<g id="edge39" class="edge">
<title>22&#45;&gt;21</title>
<path fill="none" stroke="#000000" d="M4744,-719.8314C4744,-712.131 4744,-702.9743 4744,-694.4166"/>
<polygon fill="#000000" stroke="#000000" points="4747.5001,-694.4132 4744,-684.4133 4740.5001,-694.4133 4747.5001,-694.4132"/>
</g>
<!-- 23 -->
<g id="node33" class="node">
<title>23</title>
<polygon fill="none" stroke="#00ff00" points="6048.5,-612 5465.5,-612 5465.5,-576 6048.5,-576 6048.5,-612"/>
<text text-anchor="middle" x="5757" y="-590.3" font-family="Roboto" font-size="14.00" fill="#000000">23:networkServiceInfo(fileServers_host_10,serverApplication,httpProtocol,httpPort,user):1</text>
</g>
<!-- 23&#45;&gt;19 -->
<g id="edge40" class="edge">
<title>23&#45;&gt;19</title>
<path fill="none" stroke="#000000" d="M5814.2397,-575.9243C5846.4155,-565.7635 5886.6904,-553.0451 5920.0446,-542.5122"/>
<polygon fill="#000000" stroke="#000000" points="5921.2234,-545.8104 5929.7053,-539.4615 5919.1155,-539.1353 5921.2234,-545.8104"/>
</g>
<!-- 23&#45;&gt;25 -->
<g id="edge41" class="edge">
<title>23&#45;&gt;25</title>
<path fill="none" stroke="#000000" d="M5702.2708,-575.9243C5671.6383,-565.8071 5633.3282,-553.1543 5601.5175,-542.648"/>
<polygon fill="#000000" stroke="#000000" points="5602.4627,-539.2743 5591.8695,-539.4615 5600.2674,-545.9211 5602.4627,-539.2743"/>
</g>
<!-- 23&#45;&gt;27 -->
<g id="edge42" class="edge">
<title>23&#45;&gt;27</title>
<path fill="none" stroke="#000000" d="M5590.7299,-575.9707C5480.949,-564.0668 5338.6525,-548.637 5234.3408,-537.3261"/>
<polygon fill="#000000" stroke="#000000" points="5234.6861,-533.8431 5224.3671,-536.2446 5233.9315,-540.8023 5234.6861,-533.8431"/>
</g>
<!-- 24 -->
<g id="node34" class="node">
<title>24</title>
<polygon fill="none" stroke="#00ff00" points="7585,-612 6835,-612 6835,-576 7585,-576 7585,-612"/>
<text text-anchor="middle" x="7210" y="-590.3" font-family="Roboto" font-size="14.00" fill="#000000">24:vulExists(fileServers_host_10,fileServers_host_10_remoteVul_0,serverApplication,remoteExploit,privEscalation):1</text>
</g>
<!-- 24&#45;&gt;19 -->
<g id="edge43" class="edge">
<title>24&#45;&gt;19</title>
<path fill="none" stroke="#000000" d="M6903.6463,-575.9939C6673.2557,-562.4526 6365.071,-544.3389 6170.7702,-532.9187"/>
<polygon fill="#000000" stroke="#000000" points="6170.9278,-529.4221 6160.7396,-532.3292 6170.517,-536.41 6170.9278,-529.4221"/>
</g>
<!-- 26 -->
<g id="node35" class="node">
<title>26</title>
<polygon fill="none" stroke="#00ff00" points="6817,-612 6067,-612 6067,-576 6817,-576 6817,-612"/>
<text text-anchor="middle" x="6442" y="-590.3" font-family="Roboto" font-size="14.00" fill="#000000">26:vulExists(fileServers_host_10,fileServers_host_10_remoteVul_1,serverApplication,remoteExploit,privEscalation):1</text>
</g>
<!-- 26&#45;&gt;25 -->
<g id="edge44" class="edge">
<title>26&#45;&gt;25</title>
<path fill="none" stroke="#000000" d="M6214.1644,-575.9814C6082.1074,-565.5189 5912.6606,-552.0626 5762,-540 5743.038,-538.4818 5723.1695,-536.8857 5703.4353,-535.2971"/>
<polygon fill="#000000" stroke="#000000" points="5703.6983,-531.807 5693.4496,-534.493 5703.1364,-538.7844 5703.6983,-531.807"/>
</g>
<!-- 28 -->
<g id="node36" class="node">
<title>28</title>
<polygon fill="none" stroke="#00ff00" points="4721,-612 3971,-612 3971,-576 4721,-576 4721,-612"/>
<text text-anchor="middle" x="4346" y="-590.3" font-family="Roboto" font-size="14.00" fill="#000000">28:vulExists(fileServers_host_10,fileServers_host_10_remoteVul_2,serverApplication,remoteExploit,privEscalation):1</text>
</g>
<!-- 28&#45;&gt;27 -->
<g id="edge45" class="edge">
<title>28&#45;&gt;27</title>
<path fill="none" stroke="#000000" d="M4533.0539,-575.9707C4659.3454,-563.798 4823.8873,-547.9386 4941.8728,-536.5665"/>
<polygon fill="#000000" stroke="#000000" points="4942.4503,-540.0271 4952.0684,-535.5838 4941.7787,-533.0594 4942.4503,-540.0271"/>
</g>
<!-- 33 -->
<g id="node38" class="node">
<title>33</title>
<polygon fill="none" stroke="#00ff00" points="5019,-468 4555,-468 4555,-432 5019,-432 5019,-468"/>
<text text-anchor="middle" x="4787" y="-446.3" font-family="Roboto" font-size="14.00" fill="#000000">33:hacl(fileServers_host_10,fileServers_host_9,httpProtocol,httpPort):1</text>
</g>
<!-- 33&#45;&gt;32 -->
<g id="edge48" class="edge">
<title>33&#45;&gt;32</title>
<path fill="none" stroke="#000000" d="M4787,-431.8314C4787,-424.131 4787,-414.9743 4787,-406.4166"/>
<polygon fill="#000000" stroke="#000000" points="4790.5001,-406.4132 4787,-396.4133 4783.5001,-406.4133 4790.5001,-406.4132"/>
</g>
<!-- 34 -->
<g id="node39" class="node">
<title>34</title>
<polygon fill="none" stroke="#00ff00" points="4122.5,-324 3547.5,-324 3547.5,-288 4122.5,-288 4122.5,-324"/>
<text text-anchor="middle" x="3835" y="-302.3" font-family="Roboto" font-size="14.00" fill="#000000">34:networkServiceInfo(fileServers_host_9,serverApplication,httpProtocol,httpPort,user):1</text>
</g>
<!-- 34&#45;&gt;30 -->
<g id="edge49" class="edge">
<title>34&#45;&gt;30</title>
<path fill="none" stroke="#000000" d="M3848.1218,-287.8314C3854.0499,-279.6232 3861.1729,-269.7606 3867.6933,-260.7323"/>
<polygon fill="#000000" stroke="#000000" points="3870.684,-262.5693 3873.7015,-252.4133 3865.0092,-258.4708 3870.684,-262.5693"/>
</g>
<!-- 34&#45;&gt;36 -->
<g id="edge50" class="edge">
<title>34&#45;&gt;36</title>
<path fill="none" stroke="#000000" d="M3972.4733,-287.9707C4060.1563,-276.4713 4172.9273,-261.6817 4258.239,-250.4932"/>
<polygon fill="#000000" stroke="#000000" points="4258.7801,-253.9523 4268.2401,-249.1816 4257.8698,-247.0118 4258.7801,-253.9523"/>
</g>
<!-- 35 -->
<g id="node40" class="node">
<title>35</title>
<polygon fill="none" stroke="#00ff00" points="3529,-324 2795,-324 2795,-288 3529,-288 3529,-324"/>
<text text-anchor="middle" x="3162" y="-302.3" font-family="Roboto" font-size="14.00" fill="#000000">35:vulExists(fileServers_host_9,fileServers_host_9_remoteVul_0,serverApplication,remoteExploit,privEscalation):1</text>
</g>
<!-- 35&#45;&gt;30 -->
<g id="edge51" class="edge">
<title>35&#45;&gt;30</title>
<path fill="none" stroke="#000000" d="M3343.5449,-287.9707C3465.3831,-275.8709 3623.9019,-260.1284 3738.2619,-248.7712"/>
<polygon fill="#000000" stroke="#000000" points="3738.8884,-252.2263 3748.4935,-247.7551 3738.1966,-245.2606 3738.8884,-252.2263"/>
</g>
<!-- 37 -->
<g id="node41" class="node">
<title>37</title>
<polygon fill="none" stroke="#00ff00" points="5586,-324 4852,-324 4852,-288 5586,-288 5586,-324"/>
<text text-anchor="middle" x="5219" y="-302.3" font-family="Roboto" font-size="14.00" fill="#000000">37:vulExists(fileServers_host_9,fileServers_host_9_remoteVul_1,serverApplication,remoteExploit,privEscalation):1</text>
</g>
<!-- 37&#45;&gt;36 -->
<g id="edge52" class="edge">
<title>37&#45;&gt;36</title>
<path fill="none" stroke="#000000" d="M5010.1793,-287.9939C4865.6452,-275.5311 4676.1943,-259.1952 4543.6833,-247.7691"/>
<polygon fill="#000000" stroke="#000000" points="4543.7083,-244.2583 4533.4445,-246.8862 4543.1068,-251.2325 4543.7083,-244.2583"/>
</g>
<!-- 38 -->
<g id="node42" class="node">
<title>38</title>
<polygon fill="none" stroke="#0000ff" points="6966,-36 6705.7569,-18 6966,0 7226.2431,-18 6966,-36"/>
<text text-anchor="middle" x="6966" y="-14.3" font-family="Roboto" font-size="14.00" fill="#000000">38:execCode(workStation_host_10,root):0</text>
</g>
<!-- 39 -->
<g id="node43" class="node">
<title>39</title>
<ellipse fill="none" stroke="#ff0000" cx="6836" cy="-90" rx="121" ry="18"/>
<text text-anchor="middle" x="6836" y="-86.3" font-family="Roboto" font-size="14.00" fill="#000000">39:RULE 1 (local exploit):0</text>
</g>
<!-- 39&#45;&gt;38 -->
<g id="edge53" class="edge">
<title>39&#45;&gt;38</title>
<path fill="none" stroke="#000000" d="M6867.4694,-72.5708C6885.7629,-62.439 6908.9359,-49.6047 6928.2124,-38.9285"/>
<polygon fill="#000000" stroke="#000000" points="6929.9907,-41.9446 6937.0428,-34.0378 6926.5991,-35.8211 6929.9907,-41.9446"/>
</g>
<!-- 40 -->
<g id="node44" class="node">
<title>40</title>
<polygon fill="none" stroke="#00ff00" points="6687,-180 5955,-180 5955,-144 6687,-144 6687,-180"/>
<text text-anchor="middle" x="6321" y="-158.3" font-family="Roboto" font-size="14.00" fill="#000000">40:vulExists(workStation_host_10,workStation_host_10_localVul_0,localApplication,localExploit,privEscalation):1</text>
</g>
<!-- 40&#45;&gt;39 -->
<g id="edge54" class="edge">
<title>40&#45;&gt;39</title>
<path fill="none" stroke="#000000" d="M6449.9595,-143.9707C6538.9619,-131.5277 6655.5195,-115.2322 6737.1813,-103.8154"/>
<polygon fill="#000000" stroke="#000000" points="6738.0439,-107.229 6747.4629,-102.378 6737.0746,-100.2964 6738.0439,-107.229"/>
</g>
<!-- 41&#45;&gt;39 -->
<g id="edge55" class="edge">
<title>41&#45;&gt;39</title>
<path fill="none" stroke="#000000" d="M6936.8255,-145.8418C6919.1181,-136.0347 6896.2524,-123.3705 6876.7738,-112.5824"/>
<polygon fill="#000000" stroke="#000000" points="6878.2518,-109.4001 6867.8081,-107.6168 6874.8602,-115.5236 6878.2518,-109.4001"/>
</g>
<!-- 50 -->
<g id="node46" class="node">
<title>50</title>
<ellipse fill="none" stroke="#ff0000" cx="7096" cy="-90" rx="121" ry="18"/>
<text text-anchor="middle" x="7096" y="-86.3" font-family="Roboto" font-size="14.00" fill="#000000">50:RULE 1 (local exploit):0</text>
</g>
<!-- 41&#45;&gt;50 -->
<g id="edge56" class="edge">
<title>41&#45;&gt;50</title>
<path fill="none" stroke="#000000" d="M6995.1745,-145.8418C7012.8819,-136.0347 7035.7476,-123.3705 7055.2262,-112.5824"/>
<polygon fill="#000000" stroke="#000000" points="7057.1398,-115.5236 7064.1919,-107.6168 7053.7482,-109.4001 7057.1398,-115.5236"/>
</g>
<!-- 50&#45;&gt;38 -->
<g id="edge57" class="edge">
<title>50&#45;&gt;38</title>
<path fill="none" stroke="#000000" d="M7064.5306,-72.5708C7046.2371,-62.439 7023.0641,-49.6047 7003.7876,-38.9285"/>
<polygon fill="#000000" stroke="#000000" points="7005.4009,-35.8211 6994.9572,-34.0378 7002.0093,-41.9446 7005.4009,-35.8211"/>
</g>
<!-- 45 -->
<g id="node47" class="node">
<title>45</title>
<polygon fill="none" stroke="#00ff00" points="7096.5,-468 6615.5,-468 6615.5,-432 7096.5,-432 7096.5,-468"/>
<text text-anchor="middle" x="6856" y="-446.3" font-family="Roboto" font-size="14.00" fill="#000000">45:hacl(fileServers_host_10,workStation_host_10,httpProtocol,httpPort):1</text>
</g>
<!-- 45&#45;&gt;44 -->
<g id="edge60" class="edge">
<title>45&#45;&gt;44</title>
<path fill="none" stroke="#000000" d="M6856,-431.8314C6856,-424.131 6856,-414.9743 6856,-406.4166"/>
<polygon fill="#000000" stroke="#000000" points="6859.5001,-406.4132 6856,-396.4133 6852.5001,-406.4133 6859.5001,-406.4132"/>
</g>
<!-- 46 -->
<g id="node48" class="node">
<title>46</title>
<polygon fill="none" stroke="#00ff00" points="6982,-324 6390,-324 6390,-288 6982,-288 6982,-324"/>
<text text-anchor="middle" x="6686" y="-302.3" font-family="Roboto" font-size="14.00" fill="#000000">46:networkServiceInfo(workStation_host_10,serverApplication,httpProtocol,httpPort,user):1</text>
</g>
<!-- 46&#45;&gt;42 -->
<g id="edge61" class="edge">
<title>46&#45;&gt;42</title>
<path fill="none" stroke="#000000" d="M6700.3835,-287.8314C6706.9486,-279.5386 6714.8507,-269.557 6722.0578,-260.4533"/>
<polygon fill="#000000" stroke="#000000" points="6724.9599,-262.4262 6728.4228,-252.4133 6719.4716,-258.0813 6724.9599,-262.4262"/>
</g>
<!-- 46&#45;&gt;48 -->
<g id="edge62" class="edge">
<title>46&#45;&gt;48</title>
<path fill="none" stroke="#000000" d="M6840.7514,-287.9707C6941.4957,-276.2335 7071.6612,-261.0686 7168.3504,-249.8038"/>
<polygon fill="#000000" stroke="#000000" points="7168.9593,-253.2567 7178.4871,-248.6229 7168.1492,-246.3037 7168.9593,-253.2567"/>
</g>
<!-- 47 -->
<g id="node49" class="node">
<title>47</title>
<polygon fill="none" stroke="#00ff00" points="6372,-324 5604,-324 5604,-288 6372,-288 6372,-324"/>
<text text-anchor="middle" x="5988" y="-302.3" font-family="Roboto" font-size="14.00" fill="#000000">47:vulExists(workStation_host_10,workStation_host_10_remoteVul_0,serverApplication,remoteExploit,privEscalation):1</text>
</g>
<!-- 47&#45;&gt;42 -->
<g id="edge63" class="edge">
<title>47&#45;&gt;42</title>
<path fill="none" stroke="#000000" d="M6177.0571,-287.9707C6304.9134,-275.7778 6471.5583,-259.8858 6590.8487,-248.5098"/>
<polygon fill="#000000" stroke="#000000" points="6591.5337,-251.9604 6601.1563,-247.5268 6590.8691,-244.992 6591.5337,-251.9604"/>
</g>
<!-- 49 -->
<g id="node50" class="node">
<title>49</title>
<polygon fill="none" stroke="#00ff00" points="8510,-324 7742,-324 7742,-288 8510,-288 8510,-324"/>
<text text-anchor="middle" x="8126" y="-302.3" font-family="Roboto" font-size="14.00" fill="#000000">49:vulExists(workStation_host_10,workStation_host_10_remoteVul_1,serverApplication,remoteExploit,privEscalation):1</text>
</g>
<!-- 49&#45;&gt;48 -->
<g id="edge64" class="edge">
<title>49&#45;&gt;48</title>
<path fill="none" stroke="#000000" d="M7920.4304,-287.9939C7778.61,-275.5717 7592.8597,-259.3016 7462.4738,-247.8809"/>
<polygon fill="#000000" stroke="#000000" points="7462.6651,-244.3844 7452.3978,-246.9983 7462.0542,-251.3577 7462.6651,-244.3844"/>
</g>
<!-- 51 -->
<g id="node51" class="node">
<title>51</title>
<polygon fill="none" stroke="#00ff00" points="7977,-180 7245,-180 7245,-144 7977,-144 7977,-180"/>
<text text-anchor="middle" x="7611" y="-158.3" font-family="Roboto" font-size="14.00" fill="#000000">51:vulExists(workStation_host_10,workStation_host_10_localVul_1,localApplication,localExploit,privEscalation):1</text>
</g>
<!-- 51&#45;&gt;50 -->
<g id="edge65" class="edge">
<title>51&#45;&gt;50</title>
<path fill="none" stroke="#000000" d="M7482.0405,-143.9707C7393.0381,-131.5277 7276.4805,-115.2322 7194.8187,-103.8154"/>
<polygon fill="#000000" stroke="#000000" points="7194.9254,-100.2964 7184.5371,-102.378 7193.9561,-107.229 7194.9254,-100.2964"/>
</g>
</g>
</svg>
