<?xml version="1.0" encoding="UTF-8" standalone="no"?>
<!DOCTYPE svg PUBLIC "-//W3C//DTD SVG 1.1//EN"
 "http://www.w3.org/Graphics/SVG/1.1/DTD/svg11.dtd">
<!-- Generated by graphviz version 2.40.1 (20161225.0304)
 -->
<!-- Title: small_enterprise Pages: 1 -->
<svg width="412pt" height="294pt"
 viewBox="0.00 0.00 412.00 294.00" xmlns="http://www.w3.org/2000/svg" xmlns:xlink="http://www.w3.org/1999/xlink">
<g id="graph0" class="graph" transform="scale(1 1) rotate(0) translate(4 290)">
<title>small_enterprise</title>
<polygon fill="#ffffff" stroke="transparent" points="-4,4 -4,-290 408,-290 408,4 -4,4"/>
<text text-anchor="middle" x="202" y="-262.8" font-family="Times,serif" font-size="24.00" fill="#000000">Super Graph for small_enterprise model</text>
<!-- workStation -->
<g id="node1" class="node">
<title>workStation</title>
<polygon fill="none" stroke="#0000ff" points="267.9473,-252 175.9473,-252 175.9473,-216 267.9473,-216 267.9473,-252"/>
<text text-anchor="middle" x="221.9473" y="-230.3" font-family="Roboto" font-size="14.00" fill="#000000">workStation</text>
</g>
<!-- workStation&#45;&gt;workStation -->
<g id="edge1" class="edge">
<title>workStation&#45;&gt;workStation</title>
<path fill="none" stroke="#000000" d="M267.9714,-247.1704C278.3535,-245.9839 285.9473,-241.5938 285.9473,-234 285.9473,-229.1353 282.8308,-225.5853 277.8612,-223.3501"/>
<polygon fill="#000000" stroke="#000000" points="278.5261,-219.9077 267.9714,-220.8296 276.7973,-226.6909 278.5261,-219.9077"/>
</g>
<!-- webServer -->
<g id="node2" class="node">
<title>webServer</title>
<polygon fill="none" stroke="#0000ff" points="262.9473,-180 180.9473,-180 180.9473,-144 262.9473,-144 262.9473,-180"/>
<text text-anchor="middle" x="221.9473" y="-158.3" font-family="Roboto" font-size="14.00" fill="#000000">webServer</text>
</g>
<!-- workStation&#45;&gt;webServer -->
<g id="edge2" class="edge">
<title>workStation&#45;&gt;webServer</title>
<path fill="none" stroke="#000000" d="M215.9949,-215.8314C215.2444,-208.131 215.0235,-198.9743 215.3322,-190.4166"/>
<polygon fill="#000000" stroke="#000000" points="218.8265,-190.6161 215.9712,-180.4133 211.8407,-190.1697 218.8265,-190.6161"/>
</g>
<!-- fileServer -->
<g id="node3" class="node">
<title>fileServer</title>
<polygon fill="none" stroke="#0000ff" points="181.4473,-108 106.4473,-108 106.4473,-72 181.4473,-72 181.4473,-108"/>
<text text-anchor="middle" x="143.9473" y="-86.3" font-family="Roboto" font-size="14.00" fill="#000000">fileServer</text>
</g>
<!-- workStation&#45;&gt;fileServer -->
<g id="edge3" class="edge">
<title>workStation&#45;&gt;fileServer</title>
<path fill="none" stroke="#000000" d="M193.3054,-215.9526C182.2798,-206.1789 170.6863,-193.3832 162.9473,-180 151.854,-160.8165 144.6619,-136.7439 141.6802,-118.323"/>
<polygon fill="#000000" stroke="#000000" points="145.1292,-117.6972 140.4134,-108.2098 138.1835,-118.5673 145.1292,-117.6972"/>
</g>
<!-- internet -->
<g id="node4" class="node">
<title>internet</title>
<polygon fill="none" stroke="#0000ff" points="268.9473,-36 204.9473,-36 204.9473,0 268.9473,0 268.9473,-36"/>
<text text-anchor="middle" x="236.9473" y="-14.3" font-family="Roboto" font-size="14.00" fill="#000000">internet</text>
</g>
<!-- workStation&#45;&gt;internet -->
<g id="edge4" class="edge">
<title>workStation&#45;&gt;internet</title>
<path fill="none" stroke="#000000" d="M256.0362,-215.9135C269.168,-207.0032 282.7369,-194.9331 289.9473,-180 312.0345,-134.2557 280.67,-77.0181 257.6065,-44.2691"/>
<polygon fill="#000000" stroke="#000000" points="260.3789,-42.1305 251.6665,-36.1019 254.7179,-46.2478 260.3789,-42.1305"/>
</g>
<!-- webServer&#45;&gt;workStation -->
<g id="edge5" class="edge">
<title>webServer&#45;&gt;workStation</title>
<path fill="none" stroke="#000000" d="M227.9233,-180.4133C228.6544,-188.0593 228.8675,-197.1084 228.5627,-205.5726"/>
<polygon fill="#000000" stroke="#000000" points="225.052,-205.6264 227.8996,-215.8314 232.0375,-206.078 225.052,-205.6264"/>
</g>
<!-- webServer&#45;&gt;webServer -->
<g id="edge6" class="edge">
<title>webServer&#45;&gt;webServer</title>
<path fill="none" stroke="#000000" d="M263.0304,-175.3146C273.2836,-174.3835 280.9473,-169.9453 280.9473,-162 280.9473,-156.91 277.8021,-153.2594 272.8458,-151.0481"/>
<polygon fill="#000000" stroke="#000000" points="273.5718,-147.6229 263.0304,-148.6854 271.9336,-154.4285 273.5718,-147.6229"/>
</g>
<!-- webServer&#45;&gt;fileServer -->
<g id="edge7" class="edge">
<title>webServer&#45;&gt;fileServer</title>
<path fill="none" stroke="#000000" d="M196.3122,-143.8314C186.2205,-135.2848 174.8377,-124.9443 165.2079,-115.6198"/>
<polygon fill="#000000" stroke="#000000" points="167.4909,-112.9551 157.9189,-108.4133 162.5693,-117.933 167.4909,-112.9551"/>
</g>
<!-- webServer&#45;&gt;internet -->
<g id="edge8" class="edge">
<title>webServer&#45;&gt;internet</title>
<path fill="none" stroke="#000000" d="M219.1738,-143.7623C219.2729,-119.0928 223.6143,-74.8598 228.5613,-45.9731"/>
<polygon fill="#000000" stroke="#000000" points="232.0118,-46.5618 230.4046,-36.0896 225.1305,-45.2784 232.0118,-46.5618"/>
</g>
<!-- fileServer&#45;&gt;workStation -->
<g id="edge9" class="edge">
<title>fileServer&#45;&gt;workStation</title>
<path fill="none" stroke="#000000" d="M153.852,-108.2098C159.9891,-127.1065 167.6768,-157.0515 180.9473,-180 186.7636,-190.0581 194.7569,-199.7844 202.2433,-208.1455"/>
<polygon fill="#000000" stroke="#000000" points="199.8403,-210.7037 209.178,-215.7097 205.0001,-205.9733 199.8403,-210.7037"/>
</g>
<!-- fileServer&#45;&gt;webServer -->
<g id="edge10" class="edge">
<title>fileServer&#45;&gt;webServer</title>
<path fill="none" stroke="#000000" d="M169.5755,-108.1628C179.7442,-116.7744 191.2246,-127.2081 200.902,-136.5888"/>
<polygon fill="#000000" stroke="#000000" points="198.6482,-139.2827 208.2169,-143.8314 203.5733,-134.3084 198.6482,-139.2827"/>
</g>
<!-- fileServer&#45;&gt;fileServer -->
<g id="edge11" class="edge">
<title>fileServer&#45;&gt;fileServer</title>
<path fill="none" stroke="#000000" d="M181.5601,-103.4003C191.7188,-102.6933 199.4473,-98.2266 199.4473,-90 199.4473,-84.7299 196.2755,-81.0027 191.3249,-78.8186"/>
<polygon fill="#000000" stroke="#000000" points="192.0871,-75.4027 181.5601,-76.5997 190.5359,-82.2287 192.0871,-75.4027"/>
</g>
<!-- fileServer&#45;&gt;internet -->
<g id="edge12" class="edge">
<title>fileServer&#45;&gt;internet</title>
<path fill="none" stroke="#000000" d="M167.4151,-71.8314C178.9799,-62.8779 193.0876,-51.9558 205.5656,-42.2955"/>
<polygon fill="#000000" stroke="#000000" points="207.7223,-45.0521 213.4869,-36.1628 203.4371,-39.5171 207.7223,-45.0521"/>
</g>
<!-- internet&#45;&gt;webServer -->
<g id="edge13" class="edge">
<title>internet&#45;&gt;webServer</title>
<path fill="none" stroke="#000000" d="M239.7212,-36.0896C239.6391,-60.6805 235.3075,-104.905 230.3629,-133.8531"/>
<polygon fill="#000000" stroke="#000000" points="226.9075,-133.2909 228.5202,-143.7623 233.7895,-134.5708 226.9075,-133.2909"/>
</g>
</g>
</svg>
