<?xml version="1.0" encoding="UTF-8" standalone="no"?>
<!DOCTYPE svg PUBLIC "-//W3C//DTD SVG 1.1//EN"
 "http://www.w3.org/Graphics/SVG/1.1/DTD/svg11.dtd">
<!-- Generated by graphviz version 2.40.1 (20161225.0304)
 -->
<!-- Pages: 1 -->
<svg width="199pt" height="294pt"
 viewBox="0.00 0.00 199.11 294.00" xmlns="http://www.w3.org/2000/svg" xmlns:xlink="http://www.w3.org/1999/xlink">
<g id="graph0" class="graph" transform="scale(1 1) rotate(0) translate(4 290)">
<polygon fill="#ffffff" stroke="transparent" points="-4,4 -4,-290 195.1055,-290 195.1055,4 -4,4"/>
<text text-anchor="middle" x="95.5527" y="-262.8" font-family="Times,serif" font-size="24.00" fill="#000000">Original Network</text>
<!-- workStation -->
<g id="node1" class="node">
<title>workStation</title>
<polygon fill="none" stroke="#0000ff" points="161.5,-252 69.5,-252 69.5,-216 161.5,-216 161.5,-252"/>
<text text-anchor="middle" x="115.5" y="-230.3" font-family="Roboto" font-size="14.00" fill="#000000">workStation</text>
</g>
<!-- workStation&#45;&gt;workStation -->
<g id="edge1" class="edge">
<title>workStation&#45;&gt;workStation</title>
<path fill="none" stroke="#000000" d="M161.5242,-247.1704C171.9063,-245.9839 179.5,-241.5938 179.5,-234 179.5,-229.1353 176.3835,-225.5853 171.414,-223.3501"/>
<polygon fill="#000000" stroke="#000000" points="172.0788,-219.9077 161.5242,-220.8296 170.35,-226.6909 172.0788,-219.9077"/>
</g>
<!-- webServer -->
<g id="node2" class="node">
<title>webServer</title>
<polygon fill="none" stroke="#0000ff" points="156.5,-180 74.5,-180 74.5,-144 156.5,-144 156.5,-180"/>
<text text-anchor="middle" x="115.5" y="-158.3" font-family="Roboto" font-size="14.00" fill="#000000">webServer</text>
</g>
<!-- workStation&#45;&gt;webServer -->
<g id="edge2" class="edge">
<title>workStation&#45;&gt;webServer</title>
<path fill="none" stroke="#000000" d="M109.5476,-215.8314C108.7972,-208.131 108.5763,-198.9743 108.8849,-190.4166"/>
<polygon fill="#000000" stroke="#000000" points="112.3792,-190.6161 109.524,-180.4133 105.3935,-190.1697 112.3792,-190.6161"/>
</g>
<!-- fileServer -->
<g id="node3" class="node">
<title>fileServer</title>
<polygon fill="none" stroke="#0000ff" points="75,-108 0,-108 0,-72 75,-72 75,-108"/>
<text text-anchor="middle" x="37.5" y="-86.3" font-family="Roboto" font-size="14.00" fill="#000000">fileServer</text>
</g>
<!-- workStation&#45;&gt;fileServer -->
<g id="edge3" class="edge">
<title>workStation&#45;&gt;fileServer</title>
<path fill="none" stroke="#000000" d="M86.8581,-215.9526C75.8325,-206.1789 64.2391,-193.3832 56.5,-180 45.4068,-160.8165 38.2147,-136.7439 35.2329,-118.323"/>
<polygon fill="#000000" stroke="#000000" points="38.682,-117.6972 33.9661,-108.2098 31.7362,-118.5673 38.682,-117.6972"/>
</g>
<!-- internet -->
<g id="node4" class="node">
<title>internet</title>
<polygon fill="none" stroke="#0000ff" points="162.5,-36 98.5,-36 98.5,0 162.5,0 162.5,-36"/>
<text text-anchor="middle" x="130.5" y="-14.3" font-family="Roboto" font-size="14.00" fill="#000000">internet</text>
</g>
<!-- workStation&#45;&gt;internet -->
<g id="edge4" class="edge">
<title>workStation&#45;&gt;internet</title>
<path fill="none" stroke="#000000" d="M149.589,-215.9135C162.7208,-207.0032 176.2897,-194.9331 183.5,-180 205.5872,-134.2557 174.2228,-77.0181 151.1593,-44.2691"/>
<polygon fill="#000000" stroke="#000000" points="153.9317,-42.1305 145.2192,-36.1019 148.2706,-46.2478 153.9317,-42.1305"/>
</g>
<!-- webServer&#45;&gt;workStation -->
<g id="edge5" class="edge">
<title>webServer&#45;&gt;workStation</title>
<path fill="none" stroke="#000000" d="M121.476,-180.4133C122.2071,-188.0593 122.4203,-197.1084 122.1155,-205.5726"/>
<polygon fill="#000000" stroke="#000000" points="118.6048,-205.6264 121.4524,-215.8314 125.5902,-206.078 118.6048,-205.6264"/>
</g>
<!-- webServer&#45;&gt;webServer -->
<g id="edge6" class="edge">
<title>webServer&#45;&gt;webServer</title>
<path fill="none" stroke="#000000" d="M156.5831,-175.3146C166.8363,-174.3835 174.5,-169.9453 174.5,-162 174.5,-156.91 171.3548,-153.2594 166.3985,-151.0481"/>
<polygon fill="#000000" stroke="#000000" points="167.1246,-147.6229 156.5831,-148.6854 165.4863,-154.4285 167.1246,-147.6229"/>
</g>
<!-- webServer&#45;&gt;fileServer -->
<g id="edge7" class="edge">
<title>webServer&#45;&gt;fileServer</title>
<path fill="none" stroke="#000000" d="M89.8649,-143.8314C79.7732,-135.2848 68.3905,-124.9443 58.7607,-115.6198"/>
<polygon fill="#000000" stroke="#000000" points="61.0436,-112.9551 51.4717,-108.4133 56.1221,-117.933 61.0436,-112.9551"/>
</g>
<!-- webServer&#45;&gt;internet -->
<g id="edge8" class="edge">
<title>webServer&#45;&gt;internet</title>
<path fill="none" stroke="#000000" d="M112.7266,-143.7623C112.8257,-119.0928 117.167,-74.8598 122.1141,-45.9731"/>
<polygon fill="#000000" stroke="#000000" points="125.5646,-46.5618 123.9574,-36.0896 118.6832,-45.2784 125.5646,-46.5618"/>
</g>
<!-- fileServer&#45;&gt;workStation -->
<g id="edge9" class="edge">
<title>fileServer&#45;&gt;workStation</title>
<path fill="none" stroke="#000000" d="M47.4048,-108.2098C53.5419,-127.1065 61.2296,-157.0515 74.5,-180 80.3163,-190.0581 88.3097,-199.7844 95.796,-208.1455"/>
<polygon fill="#000000" stroke="#000000" points="93.3931,-210.7037 102.7307,-215.7097 98.5529,-205.9733 93.3931,-210.7037"/>
</g>
<!-- fileServer&#45;&gt;webServer -->
<g id="edge10" class="edge">
<title>fileServer&#45;&gt;webServer</title>
<path fill="none" stroke="#000000" d="M63.1282,-108.1628C73.297,-116.7744 84.7774,-127.2081 94.4547,-136.5888"/>
<polygon fill="#000000" stroke="#000000" points="92.201,-139.2827 101.7697,-143.8314 97.126,-134.3084 92.201,-139.2827"/>
</g>
<!-- fileServer&#45;&gt;fileServer -->
<g id="edge11" class="edge">
<title>fileServer&#45;&gt;fileServer</title>
<path fill="none" stroke="#000000" d="M75.1128,-103.4003C85.2715,-102.6933 93,-98.2266 93,-90 93,-84.7299 89.8282,-81.0027 84.8777,-78.8186"/>
<polygon fill="#000000" stroke="#000000" points="85.6398,-75.4027 75.1128,-76.5997 84.0886,-82.2287 85.6398,-75.4027"/>
</g>
<!-- fileServer&#45;&gt;internet -->
<g id="edge12" class="edge">
<title>fileServer&#45;&gt;internet</title>
<path fill="none" stroke="#000000" d="M60.9678,-71.8314C72.5327,-62.8779 86.6404,-51.9558 99.1183,-42.2955"/>
<polygon fill="#000000" stroke="#000000" points="101.275,-45.0521 107.0397,-36.1628 96.9898,-39.5171 101.275,-45.0521"/>
</g>
<!-- internet&#45;&gt;webServer -->
<g id="edge13" class="edge">
<title>internet&#45;&gt;webServer</title>
<path fill="none" stroke="#000000" d="M133.274,-36.0896C133.1919,-60.6805 128.8603,-104.905 123.9156,-133.8531"/>
<polygon fill="#000000" stroke="#000000" points="120.4603,-133.2909 122.0729,-143.7623 127.3423,-134.5708 120.4603,-133.2909"/>
</g>
</g>
</svg>
