<?xml version="1.0" encoding="UTF-8" standalone="no"?>
<!DOCTYPE svg PUBLIC "-//W3C//DTD SVG 1.1//EN"
 "http://www.w3.org/Graphics/SVG/1.1/DTD/svg11.dtd">
<!-- Generated by graphviz version 2.40.1 (20161225.0304)
 -->
<!-- Title: small_enterprise Pages: 1 -->
<svg width="1224pt" height="670pt"
 viewBox="0.00 0.00 1224.00 670.14" xmlns="http://www.w3.org/2000/svg" xmlns:xlink="http://www.w3.org/1999/xlink">
<g id="graph0" class="graph" transform="scale(.6171 .6171) rotate(0) translate(4 1082)">
<title>small_enterprise</title>
<polygon fill="#ffffff" stroke="transparent" points="-4,4 -4,-1082 1979.5617,-1082 1979.5617,4 -4,4"/>
<text text-anchor="middle" x="987.7809" y="-1054.8" font-family="Times,serif" font-size="24.00" fill="#000000">Attack Graph for small_enterprise model</text>
<!-- 1 -->
<g id="node1" class="node">
<title>1</title>
<polygon fill="none" stroke="#0000ff" points="1498.0617,-36 1298.5617,-18 1498.0617,0 1697.5617,-18 1498.0617,-36"/>
<text text-anchor="middle" x="1498.0617" y="-14.3" font-family="Roboto" font-size="14.00" fill="#000000">1:execCode(workStation,root):0</text>
</g>
<!-- 2 -->
<g id="node2" class="node">
<title>2</title>
<ellipse fill="none" stroke="#ff0000" cx="1498.0617" cy="-90" rx="164" ry="18"/>
<text text-anchor="middle" x="1498.0617" y="-86.3" font-family="Roboto" font-size="14.00" fill="#000000">2:RULE 4 (Trojan horse installation):0</text>
</g>
<!-- 2&#45;&gt;1 -->
<g id="edge1" class="edge">
<title>2&#45;&gt;1</title>
<path fill="none" stroke="#000000" d="M1498.0617,-71.8314C1498.0617,-64.131 1498.0617,-54.9743 1498.0617,-46.4166"/>
<polygon fill="#000000" stroke="#000000" points="1501.5618,-46.4132 1498.0617,-36.4133 1494.5618,-46.4133 1501.5618,-46.4132"/>
</g>
<!-- 3 -->
<g id="node3" class="node">
<title>3</title>
<polygon fill="none" stroke="#0000ff" points="1498.0617,-180 1188.0617,-162 1498.0617,-144 1808.0617,-162 1498.0617,-180"/>
<text text-anchor="middle" x="1498.0617" y="-158.3" font-family="Roboto" font-size="14.00" fill="#000000">3:accessFile(workStation,write,&#39;/usr/local/share&#39;):0</text>
</g>
<!-- 3&#45;&gt;2 -->
<g id="edge2" class="edge">
<title>3&#45;&gt;2</title>
<path fill="none" stroke="#000000" d="M1498.0617,-143.8314C1498.0617,-136.131 1498.0617,-126.9743 1498.0617,-118.4166"/>
<polygon fill="#000000" stroke="#000000" points="1501.5618,-118.4132 1498.0617,-108.4133 1494.5618,-118.4133 1501.5618,-118.4132"/>
</g>
<!-- 4 -->
<g id="node4" class="node">
<title>4</title>
<ellipse fill="none" stroke="#ff0000" cx="1498.0617" cy="-234" rx="134" ry="18"/>
<text text-anchor="middle" x="1498.0617" y="-230.3" font-family="Roboto" font-size="14.00" fill="#000000">4:RULE 16 (NFS semantics):0</text>
</g>
<!-- 4&#45;&gt;3 -->
<g id="edge3" class="edge">
<title>4&#45;&gt;3</title>
<path fill="none" stroke="#000000" d="M1498.0617,-215.8314C1498.0617,-208.131 1498.0617,-198.9743 1498.0617,-190.4166"/>
<polygon fill="#000000" stroke="#000000" points="1501.5618,-190.4132 1498.0617,-180.4133 1494.5618,-190.4133 1501.5618,-190.4132"/>
</g>
<!-- 5 -->
<g id="node5" class="node">
<title>5</title>
<polygon fill="none" stroke="#0000ff" points="1253.0617,-324 1011.0848,-306 1253.0617,-288 1495.0387,-306 1253.0617,-324"/>
<text text-anchor="middle" x="1253.0617" y="-302.3" font-family="Roboto" font-size="14.00" fill="#000000">5:accessFile(fileServer,write,&#39;/export&#39;):0</text>
</g>
<!-- 5&#45;&gt;4 -->
<g id="edge4" class="edge">
<title>5&#45;&gt;4</title>
<path fill="none" stroke="#000000" d="M1302.0523,-291.6028C1339.5432,-280.585 1391.6112,-265.2834 1432.6601,-253.2201"/>
<polygon fill="#000000" stroke="#000000" points="1433.6996,-256.5627 1442.307,-250.3851 1431.7259,-249.8467 1433.6996,-256.5627"/>
</g>
<!-- 6 -->
<g id="node6" class="node">
<title>6</title>
<ellipse fill="none" stroke="#ff0000" cx="1144.0617" cy="-378" rx="191.1661" ry="18"/>
<text text-anchor="middle" x="1144.0617" y="-374.3" font-family="Roboto" font-size="14.00" fill="#000000">6:RULE 10 (execCode implies file access):0</text>
</g>
<!-- 6&#45;&gt;5 -->
<g id="edge5" class="edge">
<title>6&#45;&gt;5</title>
<path fill="none" stroke="#000000" d="M1171.2859,-360.0171C1185.9396,-350.3375 1204.1381,-338.3165 1219.6445,-328.0738"/>
<polygon fill="#000000" stroke="#000000" points="1222.0013,-330.7116 1228.4163,-322.2796 1218.1432,-324.8708 1222.0013,-330.7116"/>
</g>
<!-- 7 -->
<g id="node7" class="node">
<title>7</title>
<polygon fill="none" stroke="#00ff00" points="941.5617,-468 626.5617,-468 626.5617,-432 941.5617,-432 941.5617,-468"/>
<text text-anchor="middle" x="784.0617" y="-446.3" font-family="Roboto" font-size="14.00" fill="#000000">7:canAccessFile(fileServer,root,write,&#39;/export&#39;):1</text>
</g>
<!-- 7&#45;&gt;6 -->
<g id="edge6" class="edge">
<title>7&#45;&gt;6</title>
<path fill="none" stroke="#000000" d="M874.4403,-431.9243C928.8512,-421.0421 997.9305,-407.2262 1052.5443,-396.3035"/>
<polygon fill="#000000" stroke="#000000" points="1053.4474,-399.6923 1062.5668,-394.299 1052.0745,-392.8282 1053.4474,-399.6923"/>
</g>
<!-- 8 -->
<g id="node8" class="node">
<title>8</title>
<polygon fill="none" stroke="#0000ff" points="1144.0617,-468 960.0617,-450 1144.0617,-432 1328.0617,-450 1144.0617,-468"/>
<text text-anchor="middle" x="1144.0617" y="-446.3" font-family="Roboto" font-size="14.00" fill="#000000">8:execCode(fileServer,root):0</text>
</g>
<!-- 8&#45;&gt;6 -->
<g id="edge7" class="edge">
<title>8&#45;&gt;6</title>
<path fill="none" stroke="#000000" d="M1144.0617,-431.8314C1144.0617,-424.131 1144.0617,-414.9743 1144.0617,-406.4166"/>
<polygon fill="#000000" stroke="#000000" points="1147.5618,-406.4132 1144.0617,-396.4133 1140.5618,-406.4133 1147.5618,-406.4132"/>
</g>
<!-- 9 -->
<g id="node9" class="node">
<title>9</title>
<ellipse fill="none" stroke="#ff0000" cx="910.0617" cy="-522" rx="208" ry="18"/>
<text text-anchor="middle" x="910.0617" y="-518.3" font-family="Roboto" font-size="14.00" fill="#000000">9:RULE 2 (remote exploit of a server program):0</text>
</g>
<!-- 9&#45;&gt;8 -->
<g id="edge8" class="edge">
<title>9&#45;&gt;8</title>
<path fill="none" stroke="#000000" d="M966.4083,-504.6626C1003.8991,-493.127 1052.8744,-478.0576 1089.906,-466.6633"/>
<polygon fill="#000000" stroke="#000000" points="1091.0023,-469.988 1099.5307,-463.7018 1088.9436,-463.2975 1091.0023,-469.988"/>
</g>
<!-- 10 -->
<g id="node10" class="node">
<title>10</title>
<polygon fill="none" stroke="#0000ff" points="238.0617,-612 -.0617,-594 238.0617,-576 476.1852,-594 238.0617,-612"/>
<text text-anchor="middle" x="238.0617" y="-590.3" font-family="Roboto" font-size="14.00" fill="#000000">10:netAccess(fileServer,rpc,100005):0</text>
</g>
<!-- 10&#45;&gt;9 -->
<g id="edge9" class="edge">
<title>10&#45;&gt;9</title>
<path fill="none" stroke="#000000" d="M336.8566,-583.4148C450.9927,-571.186 639.6602,-550.9716 769.1625,-537.0963"/>
<polygon fill="#000000" stroke="#000000" points="769.5909,-540.5706 779.1611,-536.0251 768.8451,-533.6104 769.5909,-540.5706"/>
</g>
<!-- 11 -->
<g id="node11" class="node">
<title>11</title>
<ellipse fill="none" stroke="#ff0000" cx="417.0617" cy="-666" rx="141.8751" ry="18"/>
<text text-anchor="middle" x="417.0617" y="-662.3" font-family="Roboto" font-size="14.00" fill="#000000">11:RULE 5 (multi&#45;hop access):0</text>
</g>
<!-- 11&#45;&gt;10 -->
<g id="edge10" class="edge">
<title>11&#45;&gt;10</title>
<path fill="none" stroke="#000000" d="M374.1868,-648.7542C347.4484,-637.9991 313.0071,-624.1456 285.4585,-613.0646"/>
<polygon fill="#000000" stroke="#000000" points="286.6093,-609.7551 276.0256,-609.2704 283.9971,-616.2494 286.6093,-609.7551"/>
</g>
<!-- 12 -->
<g id="node12" class="node">
<title>12</title>
<polygon fill="none" stroke="#00ff00" points="560.5617,-756 273.5617,-756 273.5617,-720 560.5617,-720 560.5617,-756"/>
<text text-anchor="middle" x="417.0617" y="-734.3" font-family="Roboto" font-size="14.00" fill="#000000">12:hacl(webServer,fileServer,rpc,100005):1</text>
</g>
<!-- 12&#45;&gt;11 -->
<g id="edge11" class="edge">
<title>12&#45;&gt;11</title>
<path fill="none" stroke="#000000" d="M417.0617,-719.8314C417.0617,-712.131 417.0617,-702.9743 417.0617,-694.4166"/>
<polygon fill="#000000" stroke="#000000" points="420.5618,-694.4132 417.0617,-684.4133 413.5618,-694.4133 420.5618,-694.4132"/>
</g>
<!-- 13 -->
<g id="node13" class="node">
<title>13</title>
<polygon fill="none" stroke="#0000ff" points="885.0617,-756 669.0578,-738 885.0617,-720 1101.0656,-738 885.0617,-756"/>
<text text-anchor="middle" x="885.0617" y="-734.3" font-family="Roboto" font-size="14.00" fill="#000000">13:execCode(webServer,apache):0</text>
</g>
<!-- 13&#45;&gt;11 -->
<g id="edge12" class="edge">
<title>13&#45;&gt;11</title>
<path fill="none" stroke="#000000" d="M809.0887,-726.3118C729.7028,-714.0986 604.766,-694.8776 517.3293,-681.4258"/>
<polygon fill="#000000" stroke="#000000" points="517.8078,-677.9583 507.3919,-679.8969 516.7433,-684.8769 517.8078,-677.9583"/>
</g>
<!-- 23 -->
<g id="node14" class="node">
<title>23</title>
<ellipse fill="none" stroke="#ff0000" cx="1355.0617" cy="-666" rx="115.8798" ry="18"/>
<text text-anchor="middle" x="1355.0617" y="-662.3" font-family="Roboto" font-size="14.00" fill="#000000">23:RULE 17 (NFS shell):0</text>
</g>
<!-- 13&#45;&gt;23 -->
<g id="edge13" class="edge">
<title>13&#45;&gt;23</title>
<path fill="none" stroke="#000000" d="M961.3594,-726.3118C1043.5878,-713.7152 1174.4793,-693.6637 1262.5227,-680.1762"/>
<polygon fill="#000000" stroke="#000000" points="1263.1513,-683.6208 1272.506,-678.6468 1262.0913,-676.7015 1263.1513,-683.6208"/>
</g>
<!-- 23&#45;&gt;5 -->
<g id="edge14" class="edge">
<title>23&#45;&gt;5</title>
<path fill="none" stroke="#000000" d="M1359.8273,-647.9623C1366.5642,-620.8344 1378.0617,-567.8236 1378.0617,-522 1378.0617,-522 1378.0617,-522 1378.0617,-450 1378.0617,-407.2408 1371.5497,-392.753 1344.0617,-360 1332.215,-345.8842 1315.6801,-334.5395 1299.95,-325.9616"/>
<polygon fill="#000000" stroke="#000000" points="1301.3118,-322.7253 1290.8229,-321.2308 1298.0904,-328.9401 1301.3118,-322.7253"/>
</g>
<!-- 14 -->
<g id="node15" class="node">
<title>14</title>
<ellipse fill="none" stroke="#ff0000" cx="885.0617" cy="-810" rx="214" ry="18"/>
<text text-anchor="middle" x="885.0617" y="-806.3" font-family="Roboto" font-size="14.00" fill="#000000">14:RULE 2 (remote exploit of a server program):0</text>
</g>
<!-- 14&#45;&gt;13 -->
<g id="edge15" class="edge">
<title>14&#45;&gt;13</title>
<path fill="none" stroke="#000000" d="M885.0617,-791.8314C885.0617,-784.131 885.0617,-774.9743 885.0617,-766.4166"/>
<polygon fill="#000000" stroke="#000000" points="888.5618,-766.4132 885.0617,-756.4133 881.5618,-766.4133 888.5618,-766.4132"/>
</g>
<!-- 15 -->
<g id="node16" class="node">
<title>15</title>
<polygon fill="none" stroke="#0000ff" points="467.0617,-900 252.7343,-882 467.0617,-864 681.3891,-882 467.0617,-900"/>
<text text-anchor="middle" x="467.0617" y="-878.3" font-family="Roboto" font-size="14.00" fill="#000000">15:netAccess(webServer,tcp,80):0</text>
</g>
<!-- 15&#45;&gt;14 -->
<g id="edge16" class="edge">
<title>15&#45;&gt;14</title>
<path fill="none" stroke="#000000" d="M537.4971,-869.8676C604.1873,-858.3803 705.1362,-840.992 781.085,-827.9099"/>
<polygon fill="#000000" stroke="#000000" points="781.8975,-831.3215 791.1582,-826.1748 780.7092,-824.4231 781.8975,-831.3215"/>
</g>
<!-- 16 -->
<g id="node17" class="node">
<title>16</title>
<ellipse fill="none" stroke="#ff0000" cx="467.0617" cy="-954" rx="161.3716" ry="18"/>
<text text-anchor="middle" x="467.0617" y="-950.3" font-family="Roboto" font-size="14.00" fill="#000000">16:RULE 6 (direct network access):0</text>
</g>
<!-- 16&#45;&gt;15 -->
<g id="edge17" class="edge">
<title>16&#45;&gt;15</title>
<path fill="none" stroke="#000000" d="M467.0617,-935.8314C467.0617,-928.131 467.0617,-918.9743 467.0617,-910.4166"/>
<polygon fill="#000000" stroke="#000000" points="470.5618,-910.4132 467.0617,-900.4133 463.5618,-910.4133 470.5618,-910.4132"/>
</g>
<!-- 17 -->
<g id="node18" class="node">
<title>17</title>
<polygon fill="none" stroke="#00ff00" points="466.5617,-1044 223.5617,-1044 223.5617,-1008 466.5617,-1008 466.5617,-1044"/>
<text text-anchor="middle" x="345.0617" y="-1022.3" font-family="Roboto" font-size="14.00" fill="#000000">17:hacl(internet,webServer,tcp,80):1</text>
</g>
<!-- 17&#45;&gt;16 -->
<g id="edge18" class="edge">
<title>17&#45;&gt;16</title>
<path fill="none" stroke="#000000" d="M375.8475,-1007.8314C391.5711,-998.5518 410.878,-987.1576 427.6742,-977.2451"/>
<polygon fill="#000000" stroke="#000000" points="429.8753,-980.0102 436.7084,-971.9134 426.3175,-973.9818 429.8753,-980.0102"/>
</g>
<!-- 18 -->
<g id="node19" class="node">
<title>18</title>
<polygon fill="none" stroke="#00ff00" points="693.5617,-1044 484.5617,-1044 484.5617,-1008 693.5617,-1008 693.5617,-1044"/>
<text text-anchor="middle" x="589.0617" y="-1022.3" font-family="Roboto" font-size="14.00" fill="#000000">18:attackerLocated(internet):1</text>
</g>
<!-- 18&#45;&gt;16 -->
<g id="edge19" class="edge">
<title>18&#45;&gt;16</title>
<path fill="none" stroke="#000000" d="M558.276,-1007.8314C542.5523,-998.5518 523.2454,-987.1576 506.4492,-977.2451"/>
<polygon fill="#000000" stroke="#000000" points="507.806,-973.9818 497.415,-971.9134 504.2482,-980.0102 507.806,-973.9818"/>
</g>
<!-- 19 -->
<g id="node20" class="node">
<title>19</title>
<polygon fill="none" stroke="#00ff00" points="1071.0617,-900 699.0617,-900 699.0617,-864 1071.0617,-864 1071.0617,-900"/>
<text text-anchor="middle" x="885.0617" y="-878.3" font-family="Roboto" font-size="14.00" fill="#000000">19:networkServiceInfo(webServer,httpd,tcp,80,apache):1</text>
</g>
<!-- 19&#45;&gt;14 -->
<g id="edge20" class="edge">
<title>19&#45;&gt;14</title>
<path fill="none" stroke="#000000" d="M885.0617,-863.8314C885.0617,-856.131 885.0617,-846.9743 885.0617,-838.4166"/>
<polygon fill="#000000" stroke="#000000" points="888.5618,-838.4132 885.0617,-828.4133 881.5618,-838.4133 888.5618,-838.4132"/>
</g>
<!-- 20 -->
<g id="node21" class="node">
<title>20</title>
<polygon fill="none" stroke="#00ff00" points="1597.0617,-900 1089.0617,-900 1089.0617,-864 1597.0617,-864 1597.0617,-900"/>
<text text-anchor="middle" x="1343.0617" y="-878.3" font-family="Roboto" font-size="14.00" fill="#000000">20:vulExists(webServer,&#39;CAN&#45;2002&#45;0392&#39;,httpd,remoteExploit,privEscalation):1</text>
</g>
<!-- 20&#45;&gt;14 -->
<g id="edge21" class="edge">
<title>20&#45;&gt;14</title>
<path fill="none" stroke="#000000" d="M1228.3754,-863.9707C1157.41,-852.8146 1066.7461,-838.5617 996.4109,-827.5047"/>
<polygon fill="#000000" stroke="#000000" points="996.6081,-823.9928 986.1859,-825.8972 995.521,-830.9078 996.6081,-823.9928"/>
</g>
<!-- 21 -->
<g id="node22" class="node">
<title>21</title>
<polygon fill="none" stroke="#00ff00" points="888.0617,-612 494.0617,-612 494.0617,-576 888.0617,-576 888.0617,-612"/>
<text text-anchor="middle" x="691.0617" y="-590.3" font-family="Roboto" font-size="14.00" fill="#000000">21:networkServiceInfo(fileServer,mountd,rpc,100005,root):1</text>
</g>
<!-- 21&#45;&gt;9 -->
<g id="edge22" class="edge">
<title>21&#45;&gt;9</title>
<path fill="none" stroke="#000000" d="M746.042,-575.9243C776.815,-565.8071 815.3009,-553.1543 847.2575,-542.648"/>
<polygon fill="#000000" stroke="#000000" points="848.5431,-545.9097 856.9497,-539.4615 846.3568,-539.2598 848.5431,-545.9097"/>
</g>
<!-- 22 -->
<g id="node23" class="node">
<title>22</title>
<polygon fill="none" stroke="#00ff00" points="1349.5617,-612 906.5617,-612 906.5617,-576 1349.5617,-576 1349.5617,-612"/>
<text text-anchor="middle" x="1128.0617" y="-590.3" font-family="Roboto" font-size="14.00" fill="#000000">22:vulExists(fileServer,vulID,mountd,remoteExploit,privEscalation):1</text>
</g>
<!-- 22&#45;&gt;9 -->
<g id="edge23" class="edge">
<title>22&#45;&gt;9</title>
<path fill="none" stroke="#000000" d="M1073.3325,-575.9243C1042.7,-565.8071 1004.3899,-553.1543 972.5792,-542.648"/>
<polygon fill="#000000" stroke="#000000" points="973.5244,-539.2743 962.9312,-539.4615 971.3291,-545.9211 973.5244,-539.2743"/>
</g>
<!-- 24 -->
<g id="node24" class="node">
<title>24</title>
<polygon fill="none" stroke="#00ff00" points="1502.0617,-756 1164.0617,-756 1164.0617,-720 1502.0617,-720 1502.0617,-756"/>
<text text-anchor="middle" x="1333.0617" y="-734.3" font-family="Roboto" font-size="14.00" fill="#000000">24:hacl(webServer,fileServer,nfsProtocol,nfsPort):1</text>
</g>
<!-- 24&#45;&gt;23 -->
<g id="edge24" class="edge">
<title>24&#45;&gt;23</title>
<path fill="none" stroke="#000000" d="M1338.6133,-719.8314C1340.992,-712.0463 1343.8256,-702.7729 1346.465,-694.1347"/>
<polygon fill="#000000" stroke="#000000" points="1349.8604,-694.9996 1349.4355,-684.4133 1343.166,-692.954 1349.8604,-694.9996"/>
</g>
<!-- 25 -->
<g id="node25" class="node">
<title>25</title>
<polygon fill="none" stroke="#00ff00" points="1876.0617,-756 1520.0617,-756 1520.0617,-720 1876.0617,-720 1876.0617,-756"/>
<text text-anchor="middle" x="1698.0617" y="-734.3" font-family="Roboto" font-size="14.00" fill="#000000">25:nfsExportInfo(fileServer,&#39;/export&#39;,write,webServer):1</text>
</g>
<!-- 25&#45;&gt;23 -->
<g id="edge25" class="edge">
<title>25&#45;&gt;23</title>
<path fill="none" stroke="#000000" d="M1611.9511,-719.9243C1557.4207,-708.4777 1487.4272,-693.7852 1434.2759,-682.628"/>
<polygon fill="#000000" stroke="#000000" points="1434.7235,-679.1458 1424.2177,-680.5167 1433.2854,-685.9965 1434.7235,-679.1458"/>
</g>
<!-- 26 -->
<g id="node26" class="node">
<title>26</title>
<polygon fill="none" stroke="#00ff00" points="1975.5617,-324 1512.5617,-324 1512.5617,-288 1975.5617,-288 1975.5617,-324"/>
<text text-anchor="middle" x="1744.0617" y="-302.3" font-family="Roboto" font-size="14.00" fill="#000000">26:nfsMounted(workStation,&#39;/usr/local/share&#39;,fileServer,&#39;/export&#39;,read):1</text>
</g>
<!-- 26&#45;&gt;4 -->
<g id="edge26" class="edge">
<title>26&#45;&gt;4</title>
<path fill="none" stroke="#000000" d="M1682.3031,-287.9243C1646.1133,-277.3322 1600.4272,-263.9606 1563.6034,-253.1829"/>
<polygon fill="#000000" stroke="#000000" points="1564.5374,-249.8095 1553.9568,-250.3595 1562.571,-256.5277 1564.5374,-249.8095"/>
</g>
</g>
</svg>
